<?xml version="1.0" standalone="no"?>
<!DOCTYPE svg PUBLIC "-//W3C//DTD SVG 20010904//EN"
 "http://www.w3.org/TR/2001/REC-SVG-20010904/DTD/svg10.dtd">
<svg version="1.0" xmlns="http://www.w3.org/2000/svg"
 width="768.000000pt" height="768.000000pt" viewBox="0 0 768.000000 768.000000"
 preserveAspectRatio="xMidYMid meet">

<g transform="translate(0.000000,768.000000) scale(0.100000,-0.100000)"
fill="#000000" stroke="none">
<path d="M1484 7652 c-35 -46 -44 -90 -43 -216 1 -140 12 -182 59 -213 38 -26
67 -29 113 -9 62 25 72 54 75 216 4 143 3 146 -22 180 -14 19 -29 43 -32 53
-5 14 -18 17 -68 16 -54 0 -63 -3 -82 -27z"/>
<path d="M1033 7185 c-37 -16 -73 -68 -73 -105 0 -35 34 -86 68 -104 44 -23
308 -24 351 -2 86 45 80 174 -9 210 -53 21 -289 22 -337 1z"/>
<path d="M1755 7184 c-16 -8 -38 -25 -47 -37 -22 -28 -23 -105 -2 -135 31 -44
63 -52 219 -52 156 0 188 8 219 52 20 29 20 102 0 133 -27 42 -81 55 -227 55
-99 0 -139 -4 -162 -16z"/>
<path d="M4435 7185 c-154 -11 -289 -32 -405 -61 -60 -15 -152 -39 -215 -55
-22 -6 -54 -17 -72 -25 -17 -8 -36 -14 -42 -14 -15 0 -221 -85 -311 -128 -92
-44 -269 -144 -330 -187 -25 -17 -50 -34 -55 -36 -6 -2 -32 -20 -58 -39 -308
-227 -578 -508 -770 -803 -134 -204 -284 -510 -332 -677 -7 -25 -17 -58 -23
-75 -68 -199 -120 -491 -129 -726 -7 -207 -3 -231 45 -264 54 -37 94 -33 144
13 l40 38 8 170 c9 195 27 329 69 509 34 150 55 215 119 380 247 633 752 1182
1352 1466 58 28 112 54 121 59 14 7 89 37 219 85 93 35 254 74 455 111 195 36
649 35 860 0 192 -33 445 -101 560 -151 17 -7 59 -25 95 -40 71 -29 214 -100
270 -134 19 -11 46 -27 60 -34 123 -61 364 -250 530 -417 308 -308 494 -598
653 -1015 134 -351 194 -823 153 -1203 -22 -207 -72 -456 -112 -562 -7 -19
-16 -46 -19 -60 -22 -84 -163 -394 -238 -520 -18 -30 -41 -70 -52 -88 -11 -19
-36 -55 -55 -80 -19 -26 -46 -63 -60 -84 -80 -117 -273 -322 -426 -454 -93
-80 -332 -254 -349 -254 -3 0 -28 -15 -57 -33 -29 -19 -98 -55 -153 -81 -55
-26 -107 -51 -116 -56 -9 -5 -54 -23 -100 -41 -46 -17 -98 -38 -116 -45 -17
-8 -35 -14 -40 -14 -4 0 -37 -9 -73 -19 -204 -62 -353 -90 -550 -102 -245 -15
-288 -23 -323 -57 -23 -24 -29 -38 -29 -76 0 -26 7 -57 15 -70 23 -34 78 -56
139 -56 73 0 441 37 487 50 20 5 63 14 96 20 33 5 98 21 145 34 47 13 110 31
140 40 30 8 64 19 75 24 39 18 131 52 138 52 11 0 103 42 232 107 572 286
1060 778 1338 1348 76 157 127 271 127 286 0 6 6 25 14 42 23 53 87 276 111
388 36 171 45 289 45 619 0 398 -20 567 -96 820 -48 161 -52 175 -74 230 -12
30 -29 73 -37 95 -22 61 -121 259 -181 363 -179 312 -448 623 -727 843 -107
84 -169 128 -337 236 -77 49 -414 213 -439 213 -8 0 -23 6 -34 14 -11 7 -36
17 -55 21 -19 4 -48 13 -65 21 -140 60 -488 128 -740 144 -188 12 -247 11
-460 -5z"/>
<path d="M1497 6939 c-40 -23 -57 -86 -57 -214 0 -143 10 -185 52 -220 28 -23
39 -26 80 -23 94 9 118 57 118 232 0 185 -27 236 -122 236 -29 0 -61 -5 -71
-11z"/>
<path d="M4582 6708 c-18 -18 -17 -202 2 -217 9 -8 50 -11 117 -9 l104 3 0
115 0 115 -105 3 c-73 2 -109 -1 -118 -10z"/>
<path d="M4100 6650 c-14 -5 -56 -17 -95 -28 -69 -19 -70 -20 -69 -53 1 -19
10 -68 21 -109 l21 -75 43 1 c42 1 106 16 157 35 17 6 22 17 22 41 0 40 -34
164 -51 184 -13 15 -13 15 -49 4z"/>
<path d="M5226 6629 c-19 -30 -51 -172 -43 -193 3 -8 23 -18 44 -22 21 -4 61
-15 90 -26 67 -25 86 -15 102 49 6 26 18 69 27 96 8 26 12 51 9 56 -7 12 -118
49 -172 57 -36 5 -43 3 -57 -17z"/>
<path d="M3449 6392 c-36 -20 -78 -46 -94 -58 l-28 -21 42 -74 c23 -41 50 -85
60 -98 l18 -24 54 27 c51 26 149 86 149 92 0 5 -71 126 -94 161 -11 18 -25 33
-31 33 -5 0 -40 -17 -76 -38z"/>
<path d="M5842 6413 c-22 -20 -102 -158 -102 -177 0 -7 10 -18 23 -25 12 -6
40 -22 62 -36 109 -66 117 -64 178 45 8 14 23 40 33 58 l19 33 -35 29 c-19 16
-39 30 -45 30 -5 0 -30 14 -55 30 -53 35 -52 35 -78 13z"/>
<path d="M4411 6226 c-67 -24 -76 -48 -79 -219 -3 -184 -5 -195 -40 -209 -30
-13 -111 -51 -157 -75 -65 -34 -219 -169 -285 -252 -82 -100 -173 -274 -200
-381 -6 -25 -16 -63 -22 -85 -6 -22 -11 -107 -11 -190 -1 -157 11 -224 65
-360 73 -186 200 -351 338 -441 76 -49 84 -54 110 -64 14 -6 32 -14 41 -19 31
-18 164 -59 229 -71 123 -23 175 -28 283 -29 165 -1 272 -44 334 -133 26 -38
28 -49 28 -127 -1 -70 -5 -94 -24 -131 -87 -169 -255 -244 -429 -194 -68 20
-114 48 -164 100 -52 56 -75 107 -92 209 -15 83 -19 93 -53 123 l-36 32 -279
0 -278 0 -38 -34 -37 -35 2 -115 c4 -242 109 -488 294 -687 67 -73 202 -170
304 -219 57 -27 105 -57 109 -66 3 -8 6 -80 6 -159 0 -174 10 -207 73 -235 38
-18 68 -20 290 -20 359 0 350 -6 357 246 5 189 7 194 70 210 71 19 236 131
332 227 120 118 192 232 264 417 53 137 70 371 38 514 -51 221 -131 375 -268
512 -189 188 -412 269 -796 289 -165 9 -240 34 -300 103 -116 131 -45 358 143
458 47 25 62 28 157 28 96 1 110 -2 158 -27 115 -60 185 -161 200 -290 11 -83
39 -133 82 -145 14 -4 148 -7 297 -7 l273 0 36 36 36 36 -1 93 c-4 266 -132
547 -341 743 -82 78 -163 132 -280 189 -47 23 -88 46 -92 52 -4 6 -8 84 -8
172 0 246 2 244 -359 243 -169 0 -257 -4 -280 -13z m399 -393 l5 -152 34 -35
c21 -22 49 -38 70 -42 191 -36 441 -246 529 -444 42 -94 50 -117 62 -174 10
-48 10 -60 -2 -67 -7 -5 -59 -9 -116 -9 -97 0 -103 1 -111 23 -5 12 -20 49
-33 82 -13 33 -36 80 -53 105 -56 85 -183 196 -247 215 -12 4 -29 12 -36 18
-13 10 -47 18 -160 37 -143 24 -356 -48 -471 -159 -193 -187 -244 -458 -125
-661 87 -148 233 -229 450 -249 66 -6 169 -16 229 -22 180 -17 314 -69 438
-168 56 -45 157 -163 157 -184 0 -6 6 -18 13 -26 45 -55 103 -292 92 -381 -10
-84 -33 -191 -51 -235 -63 -155 -164 -295 -279 -382 -69 -52 -221 -133 -250
-133 -9 0 -38 -11 -65 -25 -73 -37 -80 -57 -80 -224 0 -94 -4 -142 -11 -147
-7 -4 -55 -7 -108 -6 -79 1 -98 4 -109 19 -9 13 -12 55 -11 150 1 122 0 134
-21 163 -21 30 -88 69 -118 70 -15 0 -89 32 -147 62 -189 101 -346 301 -406
518 -27 100 -27 100 102 100 100 0 109 -2 123 -22 9 -12 16 -31 16 -42 0 -41
83 -175 149 -240 299 -293 787 -208 965 169 98 206 68 424 -79 570 -109 108
-224 152 -419 161 -396 18 -607 110 -757 331 -27 40 -49 75 -49 79 0 4 -9 25
-19 48 -41 89 -56 166 -55 291 0 121 14 192 58 300 72 176 235 351 396 426 36
17 77 37 92 45 14 8 36 14 48 14 33 0 88 37 105 70 11 21 15 64 15 163 0 92 4
137 12 145 9 9 45 12 118 10 l105 -3 5 -152z"/>
<path d="M2906 5980 c-43 -44 -76 -84 -74 -89 6 -17 151 -162 159 -159 17 6
159 151 159 162 0 11 -151 166 -162 166 -3 0 -39 -36 -82 -80z"/>
<path d="M6375 6042 c-5 -4 -41 -39 -79 -79 l-69 -72 73 -76 c41 -42 82 -75
92 -75 24 0 161 135 156 155 -4 19 -137 155 -152 155 -6 0 -15 -4 -21 -8z"/>
<path d="M2535 5509 c-15 -22 -29 -48 -32 -57 -4 -9 -15 -28 -25 -41 -35 -46
-25 -64 66 -119 47 -29 89 -52 94 -52 10 0 47 39 55 60 4 8 18 33 31 55 14 22
30 47 35 56 5 8 7 20 3 26 -11 17 -178 113 -196 113 -3 0 -17 -18 -31 -41z"/>
<path d="M6715 5500 c-44 -27 -84 -55 -89 -63 -6 -10 2 -33 30 -78 21 -35 44
-73 49 -84 14 -27 60 -31 93 -9 34 23 80 49 110 63 12 6 22 17 22 26 0 23 -91
175 -111 186 -22 11 -10 16 -104 -41z"/>
<path d="M2260 4878 c-13 -40 -23 -91 -24 -113 -1 -35 2 -40 29 -48 17 -5 50
-15 75 -22 42 -13 80 -19 107 -16 6 1 16 20 22 44 5 23 17 68 26 100 17 60 11
87 -20 87 -7 0 -41 9 -75 20 -34 11 -75 20 -90 20 -26 0 -30 -5 -50 -72z"/>
<path d="M6957 4923 l-79 -26 7 -46 c9 -67 44 -168 60 -174 13 -6 199 44 211
56 6 6 -27 142 -47 195 -11 29 -51 28 -152 -5z"/>
<path d="M2170 4291 c-14 -28 -13 -194 2 -209 8 -8 48 -12 115 -12 123 0 123
0 123 120 0 120 0 120 -125 120 -93 0 -105 -2 -115 -19z"/>
<path d="M6982 4288 c-9 -27 -7 -191 2 -207 10 -16 208 -15 224 1 15 15 16
181 2 209 -10 17 -22 19 -116 19 -99 0 -105 -1 -112 -22z"/>
<path d="M1967 3796 c-19 -18 -37 -49 -41 -67 -3 -18 -6 -298 -6 -621 l1 -587
-25 -50 c-45 -88 37 -81 -926 -82 -897 -1 -886 0 -943 -45 -24 -19 -27 -29
-27 -82 0 -48 3 -61 18 -65 9 -4 30 -17 45 -29 27 -22 39 -23 220 -28 l192 -5
3 -708 2 -707 -26 -10 c-14 -6 -103 -10 -199 -10 -170 0 -174 0 -203 -25 -17
-14 -35 -25 -41 -25 -7 0 -11 -23 -11 -60 0 -54 3 -64 27 -85 16 -14 44 -30
63 -35 24 -8 272 -10 770 -8 836 3 781 -2 816 86 11 28 24 55 27 58 7 8 65
-13 87 -31 8 -7 26 -16 40 -20 14 -4 32 -13 40 -19 8 -7 48 -27 88 -44 l72
-32 688 0 c740 1 759 2 838 53 84 55 119 98 153 188 25 65 28 173 6 226 -23
56 -19 74 34 128 31 32 59 74 76 115 24 57 27 74 23 151 -2 48 -9 93 -14 101
-28 35 -24 49 27 101 28 29 63 77 77 107 24 48 27 67 27 155 0 76 -5 108 -18
133 -20 37 -19 40 37 92 22 21 54 62 71 91 28 51 29 60 29 164 0 99 -3 115
-26 160 -44 83 -115 149 -198 181 -40 16 -97 19 -565 24 l-520 5 -6 310 c-5
274 -8 317 -27 375 -50 160 -130 276 -252 367 -125 93 -267 143 -408 143 -79
0 -82 -1 -115 -34z m323 -267 c66 -35 151 -116 181 -174 12 -22 29 -71 40
-110 17 -62 19 -109 19 -418 0 -291 2 -353 15 -377 32 -61 20 -60 626 -60 389
0 563 -3 590 -12 82 -24 114 -116 63 -178 -46 -54 -68 -60 -232 -60 -135 0
-152 -2 -175 -20 -59 -47 -57 -147 5 -191 26 -19 48 -23 134 -27 l104 -5 35
-38 c43 -48 46 -90 10 -139 -14 -19 -31 -37 -37 -42 -7 -4 -80 -8 -161 -8
-167 0 -205 -10 -238 -64 -25 -41 -24 -86 4 -126 28 -43 73 -58 169 -59 92 -1
121 -13 148 -58 25 -43 25 -74 1 -114 -37 -60 -65 -69 -226 -69 -79 0 -155 -4
-168 -9 -32 -12 -67 -70 -67 -111 0 -17 9 -45 21 -61 33 -47 68 -59 167 -59
75 0 93 -3 116 -21 63 -49 70 -121 18 -177 -22 -24 -40 -32 -83 -37 -30 -3
-337 -5 -684 -3 l-630 3 -170 88 c-93 49 -175 93 -182 99 -11 8 -13 136 -11
627 l3 616 80 6 c176 14 288 96 357 260 22 53 22 59 25 594 2 297 5 546 8 553
8 21 65 13 125 -19z m-855 -1398 c3 -6 5 -324 5 -708 0 -646 -1 -699 -17 -710
-13 -10 -98 -13 -344 -13 -284 0 -330 2 -343 16 -14 14 -16 92 -16 708 0 525
3 695 12 704 15 15 693 17 703 3z"/>
<path d="M966 1164 c-11 -29 -7 -199 6 -212 14 -14 195 -17 216 -4 9 6 12 37
10 118 l-3 109 -111 3 c-95 2 -113 0 -118 -14z"/>
<path d="M6915 3653 c-38 -128 -42 -153 -31 -162 19 -15 88 -39 150 -51 54
-11 61 -10 73 6 7 10 13 25 13 35 0 9 9 47 20 83 26 83 19 101 -46 111 -25 3
-64 13 -86 21 -68 24 -75 20 -93 -43z"/>
<path d="M6724 3132 c-6 -4 -25 -34 -44 -67 -18 -33 -40 -68 -48 -77 -25 -29
-4 -54 88 -107 92 -53 107 -53 133 -4 16 32 49 90 68 120 16 26 6 51 -26 63
-14 5 -50 26 -80 45 -56 36 -72 40 -91 27z"/>
<path d="M6308 2574 c-38 -36 -68 -74 -68 -83 0 -18 136 -161 154 -161 17 0
156 143 156 160 0 23 -132 150 -155 150 -11 0 -50 -30 -87 -66z"/>
<path d="M5910 2253 c-48 -18 -170 -97 -170 -110 0 -8 8 -27 18 -41 31 -49 42
-67 56 -99 18 -40 51 -59 72 -42 16 13 62 40 112 65 44 22 61 57 40 81 -8 10
-30 45 -48 78 -41 74 -48 80 -80 68z"/>
<path d="M5315 1995 c-22 -8 -59 -19 -82 -25 -55 -14 -66 -35 -48 -86 8 -21
14 -47 15 -56 0 -30 31 -96 46 -102 9 -3 27 0 42 8 15 7 46 16 69 20 80 12
121 47 94 80 -6 7 -15 37 -21 65 -20 106 -38 121 -115 96z"/>
<path d="M4588 1899 c-15 -8 -18 -25 -18 -108 0 -72 4 -102 14 -110 9 -8 50
-11 117 -9 l104 3 3 109 c2 81 -1 112 -10 118 -19 11 -190 9 -210 -3z"/>
<path d="M6084 1170 c-12 -5 -32 -23 -45 -42 -22 -30 -24 -45 -27 -163 -4
-142 4 -188 42 -228 21 -23 33 -27 79 -27 60 0 89 20 113 76 17 40 19 250 4
306 -20 71 -96 106 -166 78z"/>
<path d="M5632 702 c-12 -2 -38 -18 -57 -36 -30 -29 -35 -40 -35 -80 0 -99 50
-126 235 -126 186 0 235 28 235 131 0 35 -6 47 -36 75 -19 19 -43 34 -52 34
-200 4 -271 4 -290 2z"/>
<path d="M6359 702 c-45 -5 -90 -51 -96 -99 -8 -61 12 -102 61 -124 53 -24
287 -27 340 -5 37 15 76 71 76 107 0 34 -34 85 -67 103 -27 13 -244 26 -314
18z"/>
<path d="M6074 441 c-52 -32 -64 -72 -64 -221 0 -134 5 -155 43 -198 17 -18
31 -22 83 -22 105 0 124 35 123 224 -1 140 -12 182 -59 214 -40 27 -85 28
-126 3z"/>
</g>
</svg>
