<?xml version="1.0" standalone="no"?>
<!DOCTYPE svg PUBLIC "-//W3C//DTD SVG 20010904//EN"
 "http://www.w3.org/TR/2001/REC-SVG-20010904/DTD/svg10.dtd">
<svg version="1.0" xmlns="http://www.w3.org/2000/svg"
 width="768.000000pt" height="768.000000pt" viewBox="0 0 768.000000 768.000000"
 preserveAspectRatio="xMidYMid meet">

<g transform="translate(0.000000,768.000000) scale(0.100000,-0.100000)"
fill="#000000" stroke="none">
<path d="M840 7420 c-266 -46 -480 -240 -566 -515 -17 -54 -19 -95 -19 -405
l0 -345 36 -75 c59 -125 170 -215 301 -244 l53 -11 5 -1730 c5 -1648 6 -1733
23 -1785 77 -229 249 -400 478 -476 l84 -28 735 -3 735 -4 45 23 c54 28 82 72
82 133 0 61 -28 105 -82 133 l-44 22 -711 0 c-786 0 -754 -2 -860 65 -66 42
-111 95 -149 175 l-31 65 0 470 0 470 975 5 975 5 31 22 c83 59 83 186 0 248
-27 20 -42 20 -1004 25 l-977 5 0 300 0 300 1250 5 c921 4 1255 8 1270 17 48
27 69 62 72 121 5 67 -16 110 -69 142 -30 18 -51 20 -251 20 l-217 0 2 1278 3
1277 295 0 295 0 5 -1230 c5 -1207 5 -1231 25 -1264 57 -96 200 -92 258 6 16
29 18 72 17 594 0 310 4 570 8 577 7 10 189 12 878 10 l869 -3 5 -442 5 -441
25 -27 c35 -38 73 -55 120 -55 52 0 92 21 122 62 l23 33 5 439 5 439 60 16
c85 24 158 66 214 126 105 111 121 179 121 520 -1 280 -8 364 -44 466 -66 190
-227 358 -412 431 -126 50 -14 48 -2611 47 -1330 -1 -2438 -5 -2463 -9z m1860
-790 l0 -500 -1025 0 c-1119 0 -1060 -3 -1101 57 -18 26 -19 50 -19 318 0 263
2 295 19 340 41 104 85 161 165 212 58 38 92 52 161 63 25 4 440 8 923 9 l877
1 0 -500z m3008 490 c122 -17 238 -94 298 -196 49 -84 54 -118 54 -427 l0
-287 -34 -38 -34 -37 -1033 -3 c-651 -1 -1035 1 -1039 7 -4 7 -5 934 -1 984 1
10 1714 8 1789 -3z m-3008 -1921 l0 -629 -875 0 -875 0 0 623 c0 343 3 626 6
629 3 4 397 6 875 6 l869 0 0 -629z"/>
<path d="M4789 4537 c-62 -18 -129 -58 -170 -104 -19 -21 -69 -91 -111 -154
-43 -64 -85 -119 -94 -123 -9 -4 -75 -1 -147 5 -222 20 -317 1 -401 -79 -69
-67 -99 -153 -126 -371 -5 -46 -16 -94 -25 -107 -9 -14 -50 -36 -112 -59 -162
-61 -220 -91 -272 -140 -73 -68 -95 -121 -95 -225 0 -71 7 -104 38 -200 52
-156 57 -180 44 -204 -6 -12 -54 -66 -107 -122 -57 -60 -111 -127 -131 -165
-32 -59 -35 -71 -35 -149 0 -112 28 -170 139 -288 137 -146 147 -159 140 -190
-3 -15 -24 -83 -46 -152 -69 -214 -57 -334 45 -432 55 -54 115 -87 238 -131
121 -44 156 -62 163 -84 3 -10 15 -83 26 -162 15 -103 29 -161 49 -205 67
-149 185 -203 401 -185 47 4 115 8 151 8 78 1 77 2 177 -149 106 -162 186
-224 300 -236 97 -10 162 14 362 135 46 28 91 51 101 51 19 0 71 -27 179 -93
123 -76 166 -91 260 -91 70 0 93 4 129 23 66 34 137 112 225 245 l79 119 146
-8 c195 -10 245 -7 310 16 97 34 173 131 200 254 5 28 17 102 26 165 12 90 20
119 36 132 11 9 63 33 117 54 138 52 212 89 249 124 122 115 135 218 58 460
-28 86 -44 154 -40 168 3 12 52 71 109 131 160 168 204 282 158 413 -27 76
-64 127 -178 248 -111 118 -108 92 -43 290 101 312 31 444 -300 565 -149 55
-146 52 -171 220 -24 173 -34 206 -75 271 -81 126 -195 160 -453 135 -69 -6
-121 -7 -136 -1 -15 5 -54 54 -101 125 -127 194 -214 259 -345 258 -82 0 -140
-23 -295 -113 -66 -38 -130 -70 -142 -70 -13 0 -73 30 -135 67 -184 109 -274
136 -369 110z m191 -360 c131 -78 162 -93 240 -113 109 -28 210 3 400 121 50
30 97 55 105 55 8 0 49 -51 90 -114 104 -157 143 -199 223 -238 62 -31 73 -33
172 -33 58 0 148 4 201 8 l97 9 10 -34 c6 -18 18 -89 27 -158 27 -195 64 -271
166 -339 33 -22 103 -56 156 -76 149 -56 183 -73 183 -92 0 -10 -19 -74 -42
-143 -37 -113 -41 -135 -42 -230 -1 -98 1 -108 29 -158 16 -30 78 -106 137
-170 59 -64 108 -124 108 -134 0 -9 -47 -67 -104 -127 -59 -64 -118 -138 -137
-173 -32 -60 -34 -68 -34 -163 1 -91 5 -112 43 -226 23 -69 42 -135 42 -146 0
-22 -17 -30 -165 -84 -166 -61 -241 -116 -289 -215 -29 -59 -38 -101 -60 -268
-8 -60 -19 -113 -25 -119 -7 -7 -59 -7 -168 2 -290 22 -360 -12 -520 -256 -44
-67 -86 -119 -96 -121 -10 -2 -71 28 -135 66 -144 86 -213 112 -293 112 -91 0
-155 -23 -291 -105 -68 -41 -130 -75 -139 -75 -21 0 -34 15 -117 140 -150 226
-225 261 -510 239 -106 -9 -156 -9 -163 -2 -6 6 -19 71 -30 144 -11 74 -26
156 -34 183 -41 136 -122 206 -325 280 -141 51 -150 57 -150 85 0 14 18 80 40
145 49 145 60 238 37 317 -24 82 -50 116 -219 296 -50 53 -57 65 -49 82 6 11
58 70 115 131 61 65 115 135 132 168 26 51 29 66 28 152 -1 84 -6 110 -42 219
-23 69 -42 135 -42 148 0 26 25 41 121 74 188 64 277 127 330 235 26 51 36 93
54 219 12 86 26 160 32 166 7 7 52 7 149 -1 76 -7 167 -10 202 -7 132 13 220
79 322 241 66 105 98 146 113 146 7 0 59 -28 117 -63z"/>
<path d="M5170 3724 c-252 -31 -458 -105 -663 -241 -111 -74 -293 -259 -371
-380 -157 -240 -229 -480 -229 -763 -1 -470 226 -893 621 -1159 140 -94 307
-163 502 -207 110 -25 414 -25 529 0 286 62 509 183 712 385 197 197 308 394
377 671 24 95 26 124 27 300 0 214 -10 285 -67 455 -118 353 -383 648 -728
812 -166 79 -347 121 -544 127 -72 2 -147 2 -166 0z m340 -323 c114 -25 215
-62 297 -107 566 -310 742 -1023 384 -1564 -19 -30 -73 -94 -119 -142 -404
-421 -1044 -448 -1494 -64 -131 112 -253 294 -312 467 -62 184 -73 428 -25
609 106 409 435 723 845 804 106 21 322 19 424 -3z"/>
<path d="M5800 2848 c-27 -7 -116 -91 -383 -356 l-347 -347 -123 122 c-67 66
-132 126 -144 132 -12 6 -41 11 -65 11 -122 0 -192 -138 -119 -236 44 -60 302
-309 341 -330 52 -27 172 -26 225 3 22 12 208 191 422 405 405 407 403 405
388 484 -8 46 -58 101 -103 114 -43 12 -45 11 -92 -2z"/>
</g>
</svg>
