<?xml version="1.0" standalone="no"?>
<!DOCTYPE svg PUBLIC "-//W3C//DTD SVG 20010904//EN"
 "http://www.w3.org/TR/2001/REC-SVG-20010904/DTD/svg10.dtd">
<svg version="1.0" xmlns="http://www.w3.org/2000/svg"
 width="768.000000pt" height="768.000000pt" viewBox="0 0 768.000000 768.000000"
 preserveAspectRatio="xMidYMid meet">

<g transform="translate(0.000000,768.000000) scale(0.100000,-0.100000)"
fill="#000000" stroke="none">
<path d="M3723 7503 c-22 -8 -14 -23 12 -23 14 0 25 -6 26 -12 2 -24 -2 -83
-7 -120 -5 -31 -2 -37 16 -43 29 -9 97 4 115 22 22 21 18 70 -7 105 -11 17
-44 41 -72 54 -52 24 -62 26 -83 17z m127 -71 c22 -22 40 -46 40 -55 0 -23
-39 -47 -77 -47 l-33 0 0 70 c0 84 10 88 70 32z"/>
<path d="M4129 7433 c-43 -98 -42 -97 -87 -107 -52 -11 -72 -3 -72 29 0 21 6
26 40 31 23 4 40 12 40 20 0 9 -8 10 -29 4 -34 -10 -41 -5 -41 26 0 26 9 33
47 40 51 9 38 15 -27 12 -39 -2 -65 -8 -68 -15 -2 -7 3 -13 12 -13 25 0 20
-47 -6 -61 -19 -10 -20 -13 -6 -23 8 -6 18 -23 21 -38 9 -33 39 -43 103 -33
35 5 47 12 54 31 8 19 17 24 44 24 30 0 35 -4 41 -31 4 -17 11 -27 15 -22 8 8
-13 164 -25 183 -13 22 -28 7 -56 -57z m51 -14 c0 -30 -24 -50 -39 -33 -11 12
17 77 29 69 6 -3 10 -20 10 -36z"/>
<path d="M3636 7443 c-3 -27 -4 -72 -2 -100 l4 -53 -41 0 c-32 0 -38 -3 -29
-12 7 -7 12 -43 12 -93 0 -50 -5 -86 -12 -93 -9 -9 -5 -12 18 -12 17 0 24 3
17 8 -8 5 -11 37 -10 97 2 78 4 90 20 93 10 2 26 -3 35 -12 16 -14 17 -7 20
105 3 98 1 119 -11 119 -10 0 -16 -16 -21 -47z"/>
<path d="M3330 7276 c7 -10 10 -45 8 -105 -2 -56 1 -91 7 -91 6 0 9 32 7 84
-3 50 1 92 7 105 11 19 9 21 -15 21 -22 0 -24 -2 -14 -14z"/>
<path d="M3408 7278 c15 -15 16 -152 2 -179 -9 -17 -7 -19 17 -19 19 0 24 3
15 9 -10 6 -13 33 -10 105 3 90 2 96 -16 96 -16 0 -17 -3 -8 -12z"/>
<path d="M3473 7279 c23 -14 47 -62 47 -96 0 -16 -8 -45 -18 -65 -12 -22 -14
-34 -7 -32 14 6 31 38 39 75 11 53 -29 130 -69 129 -5 0 -2 -5 8 -11z"/>
<path d="M3739 7285 c-4 -38 -2 -51 8 -60 13 -10 24 -56 27 -112 1 -23 6 -33
17 -33 14 0 15 6 2 58 -27 115 -51 178 -54 147z"/>
<path d="M3627 7195 c-4 -8 -2 -17 3 -20 6 -4 10 3 10 14 0 25 -6 27 -13 6z"/>
<path d="M3850 7200 c0 -5 14 -10 31 -10 30 0 30 -1 27 -47 -3 -44 -5 -48 -33
-54 -18 -4 0 -7 45 -6 41 0 62 2 47 4 -27 4 -28 6 -25 56 3 46 6 52 25 52 11
0 25 3 29 8 4 4 -27 7 -69 7 -45 0 -77 -4 -77 -10z"/>
<path d="M4027 7203 c-6 -9 -11 -68 -8 -100 1 -21 6 -23 58 -23 38 0 62 5 75
17 17 15 19 15 36 0 14 -12 35 -17 78 -15 55 1 56 2 12 5 -47 4 -75 23 -63 43
3 5 15 10 26 10 10 0 19 4 19 10 0 5 -10 9 -22 7 -15 -1 -23 3 -23 13 0 11 14
16 50 18 73 5 82 22 10 22 -41 0 -64 -5 -77 -17 -18 -16 -21 -16 -47 0 -29 17
-116 24 -124 10z m101 -57 c4 -43 -7 -56 -50 -56 -27 0 -28 2 -28 51 l0 50 38
-3 c35 -3 37 -5 40 -42z"/>
<path d="M4362 7198 c-18 -18 -16 -118 2 -118 9 0 16 12 18 28 3 24 7 27 38
27 31 0 35 -3 38 -27 2 -16 9 -28 18 -28 10 0 14 14 14 55 0 43 -4 56 -19 65
-27 14 -94 13 -109 -2z m98 -28 c0 -17 -7 -20 -38 -20 -21 0 -42 3 -45 7 -13
13 16 33 49 33 27 0 34 -4 34 -20z"/>
<path d="M3652 7100 c-10 -17 -10 -20 3 -20 8 0 15 9 15 20 0 11 -1 20 -3 20
-1 0 -8 -9 -15 -20z"/>
<path d="M3695 7100 c-8 -13 -1 -24 14 -19 6 3 7 10 2 18 -6 10 -10 10 -16 1z"/>
<path d="M4045 7020 c-3 -5 -4 -60 -1 -122 3 -62 8 -174 12 -248 5 -124 13
-164 30 -147 3 3 1 57 -5 119 -6 63 -11 180 -11 261 0 134 -6 168 -25 137z"/>
<path d="M4722 6992 c-104 -30 -125 -33 -133 -21 -8 12 -10 12 -18 -1 -5 -8
-8 -26 -5 -40 21 -125 23 -175 7 -192 -23 -25 -30 -23 -37 15 -11 58 -80 115
-230 191 -26 14 -43 30 -46 45 -6 29 -30 41 -30 16 0 -18 -10 -17 -67 0 -40
13 -25 -9 25 -35 46 -24 47 -27 53 -80 4 -30 10 -98 13 -150 3 -52 9 -123 12
-157 6 -53 4 -63 -9 -63 -8 0 -25 12 -36 26 -12 15 -21 21 -21 13 1 -40 48
-63 113 -55 92 13 185 78 212 151 16 42 43 63 64 51 5 -3 14 -35 21 -71 10
-51 20 -74 46 -102 31 -33 36 -34 76 -28 24 4 57 15 73 25 36 22 103 90 89 90
-6 0 -23 -14 -40 -31 -108 -114 -224 -58 -224 107 0 36 4 42 33 56 18 9 65 24
105 33 40 10 72 21 72 26 0 21 -28 18 -120 -12 -56 -17 -103 -29 -106 -26 -4
3 -7 38 -8 78 l-1 72 133 46 c72 25 132 49 132 53 0 12 -15 9 -148 -30z m-372
-97 c171 -86 209 -179 118 -289 -33 -40 -116 -86 -155 -86 -20 0 -23 5 -24 43
0 23 -2 49 -3 57 -2 8 -6 58 -10 110 -4 52 -9 119 -12 148 -4 36 -3 52 5 52 6
0 43 -16 81 -35z"/>
<path d="M5056 6988 c-2 -7 -18 -76 -36 -153 -19 -77 -35 -145 -38 -152 -2 -7
-22 -13 -45 -15 -49 -3 -52 -23 -4 -24 36 0 37 -7 23 -94 -6 -41 -5 -43 8 -27
8 10 17 41 21 68 7 53 14 59 80 73 30 6 31 5 43 -40 7 -25 15 -73 19 -105 5
-55 16 -79 30 -66 3 3 -2 48 -11 100 -21 123 -21 126 12 137 64 23 67 28 15
23 l-52 -6 -5 34 c-3 19 -11 75 -17 124 -5 50 -13 100 -16 113 -6 24 -22 30
-27 10z m32 -213 c5 -42 6 -78 3 -80 -4 -2 -23 -6 -44 -10 -45 -9 -45 -4 -18
101 32 122 45 120 59 -11z"/>
<path d="M3348 6983 c17 -2 47 -2 65 0 17 2 3 4 -33 4 -36 0 -50 -2 -32 -4z"/>
<path d="M3463 6983 c9 -2 23 -2 30 0 6 3 -1 5 -18 5 -16 0 -22 -2 -12 -5z"/>
<path d="M3840 6970 c0 -5 5 -10 10 -10 6 0 10 5 10 10 0 6 -4 10 -10 10 -5 0
-10 -4 -10 -10z"/>
<path d="M3299 6963 c-3 -36 3 -438 6 -442 3 -2 5 98 5 222 0 125 -2 227 -5
227 -3 0 -5 -3 -6 -7z"/>
<path d="M3347 6773 c18 -2 50 -2 70 0 21 2 7 4 -32 4 -38 0 -55 -2 -38 -4z"/>
<path d="M3727 6640 c-3 -11 -1 -20 4 -20 5 0 9 9 9 20 0 11 -2 20 -4 20 -2 0
-6 -9 -9 -20z"/>
<path d="M3956 6633 c6 -4 14 -15 17 -23 5 -11 6 -9 4 4 -1 11 -9 21 -17 23
-10 3 -11 2 -4 -4z"/>
<path d="M3980 6576 c0 -8 4 -17 9 -20 5 -4 7 3 4 14 -6 23 -13 26 -13 6z"/>
<path d="M4625 6427 c-11 -8 -33 -19 -50 -25 -26 -9 -27 -11 -7 -11 12 -1 22
-3 22 -6 0 -13 -30 -62 -60 -100 -61 -77 -133 -101 -146 -49 -13 52 51 132
123 154 28 8 28 8 -8 9 -44 1 -122 -46 -143 -88 -9 -16 -16 -44 -16 -61 0 -32
30 -70 55 -70 25 0 88 29 112 52 27 26 28 19 7 -53 -37 -125 -94 -194 -130
-157 -14 14 -14 17 1 32 17 17 17 47 0 53 -36 11 -53 -69 -20 -93 27 -20 68
-17 98 6 42 33 69 87 117 230 37 109 50 137 70 147 14 7 25 18 25 25 0 18 -27
21 -50 5z"/>
<path d="M4800 6426 c-92 -24 -165 -90 -176 -158 -5 -25 -1 -38 15 -52 25 -23
79 -16 106 14 43 48 42 4 -2 -108 -14 -34 -34 -73 -45 -87 -34 -44 -83 -27
-58 20 14 27 6 59 -13 53 -6 -3 -17 -15 -24 -28 -12 -25 -3 -56 21 -72 19 -13
60 -9 84 8 21 15 25 15 41 0 10 -9 33 -16 51 -16 27 0 43 9 81 49 58 60 91
141 97 237 8 136 -43 177 -178 140z m120 -6 c27 -17 18 -161 -15 -250 -48
-129 -97 -183 -133 -146 -14 14 -14 17 2 35 10 11 16 27 13 35 -3 8 4 41 17
73 12 32 30 87 39 123 19 75 44 140 55 140 4 0 14 -5 22 -10z m-70 -10 c0 -46
-99 -170 -148 -185 -49 -15 -41 54 15 116 50 55 133 98 133 69z"/>
<path d="M5495 6426 c-73 -19 -99 -31 -138 -65 -67 -60 -88 -148 -44 -189 13
-12 31 -22 40 -22 20 0 20 -1 5 -37 -18 -41 -68 -103 -83 -103 -7 0 -18 7 -25
15 -10 13 -10 19 5 35 24 27 13 54 -20 46 -28 -7 -30 -4 -13 27 6 12 -10 1
-35 -25 -35 -36 -54 -48 -76 -48 -65 0 -84 93 -31 150 21 22 29 39 24 52 -24
76 63 195 105 144 15 -18 -4 -73 -30 -87 -25 -13 -24 -36 1 -49 24 -13 54 0
70 30 17 31 12 95 -8 113 -23 21 -84 22 -122 2 -38 -20 -65 -89 -51 -129 16
-39 15 -42 -23 -65 -95 -59 -62 -242 39 -217 14 4 46 25 69 46 24 22 46 40 50
40 3 0 6 -13 6 -28 0 -36 28 -62 66 -62 33 0 84 46 123 113 17 28 29 37 50 37
15 0 30 -2 33 -5 3 -3 -2 -30 -10 -59 -23 -85 -4 -106 57 -63 35 24 80 87 62
87 -6 0 -17 -13 -25 -29 -16 -30 -44 -47 -57 -34 -4 4 -2 28 6 53 34 110 95
323 95 331 0 12 -55 10 -115 -5z m-16 -68 c-17 -29 -46 -86 -65 -125 -19 -40
-39 -73 -44 -73 -17 0 -40 32 -40 56 0 53 67 144 133 181 43 24 48 14 16 -39z
m76 15 c-8 -38 -45 -163 -56 -190 -6 -17 -17 -23 -39 -23 -16 0 -30 4 -30 9 0
20 82 187 103 209 26 28 29 28 22 -5z"/>
<path d="M2150 6351 c0 -9 55 -25 76 -22 30 4 34 -28 32 -250 l-3 -224 -52 -8
c-90 -14 -59 -27 67 -27 73 0 120 4 120 10 0 6 -9 10 -20 10 -11 0 -29 9 -40
20 -19 19 -20 33 -20 230 0 197 1 211 20 230 11 11 29 20 40 20 11 0 20 5 20
10 0 6 -47 10 -120 10 -66 0 -120 -4 -120 -9z"/>
<path d="M2470 6351 c0 -13 55 -30 78 -24 11 2 23 -1 28 -8 9 -15 8 -438 -2
-462 -6 -17 -34 -24 -34 -8 0 4 -16 3 -35 -3 -19 -6 -35 -15 -35 -19 0 -5 84
-7 188 -5 168 3 192 6 236 26 115 52 159 118 160 236 1 125 -64 216 -181 255
-53 18 -87 21 -233 21 -94 0 -170 -4 -170 -9z m369 -44 c46 -23 50 -24 41 -7
-16 31 6 25 40 -10 17 -17 30 -37 30 -44 0 -8 7 -19 16 -27 8 -7 13 -21 11
-31 -3 -10 -1 -21 4 -24 13 -8 11 -140 -3 -185 -6 -22 -24 -53 -40 -71 -15
-17 -28 -35 -28 -39 0 -11 -29 -19 -35 -9 -3 5 4 17 15 27 24 20 73 113 60
113 -5 0 -13 -15 -19 -33 -14 -42 -64 -91 -113 -111 -45 -19 -151 -21 -166 -3
-6 7 -11 93 -12 207 -3 247 -3 245 17 265 25 25 117 16 182 -18z"/>
<path d="M2921 6223 c7 -16 15 -37 20 -48 4 -11 10 -29 12 -40 3 -12 5 -8 6
12 0 17 -3 34 -8 37 -4 3 -11 19 -14 36 -4 16 -11 30 -17 30 -6 0 -6 -10 1
-27z"/>
<path d="M2951 6034 c0 -11 3 -14 6 -6 3 7 2 16 -1 19 -3 4 -6 -2 -5 -13z"/>
<path d="M3120 6352 c0 -4 14 -12 32 -17 22 -7 34 -18 39 -35 l6 -25 4 27 c3
21 7 25 18 18 12 -7 15 -47 17 -208 3 -204 -2 -252 -25 -260 -11 -4 -12 3 -7
24 l7 29 -20 -32 c-15 -23 -28 -33 -46 -33 -14 0 -25 -4 -25 -10 0 -6 65 -10
175 -10 134 0 175 3 175 13 0 9 -20 11 -78 9 -57 -3 -81 0 -89 10 -9 11 -17
147 -14 226 1 8 21 12 66 12 36 0 65 4 65 8 0 5 -28 8 -62 8 l-63 -1 -3 100
c-1 55 2 106 7 114 15 24 100 25 159 3 28 -11 52 -16 52 -11 0 5 -4 9 -10 9
-5 0 -10 5 -10 10 0 6 9 10 20 10 23 0 48 -39 31 -49 -7 -5 1 -16 20 -30 17
-13 33 -21 35 -18 2 2 -5 29 -17 61 l-22 56 -218 0 c-121 0 -219 -4 -219 -8z"/>
<path d="M3855 6340 c-36 -17 -38 -19 -18 -25 12 -4 25 -16 28 -26 6 -18 -24
-111 -66 -204 -10 -22 -30 -71 -44 -109 -14 -38 -30 -75 -35 -81 -8 -9 -5 -14
10 -18 30 -8 26 -37 -6 -37 -20 0 -25 4 -20 15 5 14 1 13 -24 -2 -17 -9 -30
-21 -30 -25 0 -4 38 -8 85 -8 50 0 85 4 85 10 0 6 -6 10 -13 10 -23 0 -47 35
-47 67 0 17 9 51 19 76 l19 45 87 -2 87 -1 19 -35 c10 -19 18 -29 19 -22 0 7
-6 23 -14 35 -8 12 -17 39 -20 59 -4 21 -12 40 -18 44 -8 5 -9 1 -4 -12 19
-46 15 -49 -66 -52 -57 -2 -78 1 -78 10 0 12 60 178 68 188 2 3 10 -4 18 -14
20 -28 17 -6 -6 48 -10 25 -16 46 -11 46 15 0 38 -35 51 -75 7 -22 16 -45 21
-50 4 -6 13 -32 20 -59 8 -31 18 -50 30 -53 12 -3 19 -19 24 -51 4 -26 16 -67
26 -92 19 -43 19 -90 0 -90 -5 0 -7 9 -4 20 3 11 0 20 -6 20 -6 0 -11 -9 -11
-20 0 -13 -9 -22 -25 -26 -54 -14 -20 -24 80 -24 106 0 130 9 81 31 -26 12
-58 77 -127 262 -17 45 -34 91 -39 102 -5 11 -20 47 -33 80 -27 69 -45 77
-112 45z"/>
<path d="M2222 6290 c0 -14 2 -19 5 -12 2 6 2 18 0 25 -3 6 -5 1 -5 -13z"/>
<path d="M3202 6240 c0 -14 2 -19 5 -12 2 6 2 18 0 25 -3 6 -5 1 -5 -13z"/>
<path d="M3464 6165 c-6 -20 -7 -38 -3 -41 5 -3 9 -14 9 -26 0 -15 -5 -19 -20
-15 -23 6 -28 -8 -6 -16 8 -3 17 -19 21 -36 13 -61 25 -29 25 69 0 55 -3 100
-8 100 -4 0 -12 -16 -18 -35z"/>
<path d="M3930 6141 c0 -6 4 -13 10 -16 6 -3 7 1 4 9 -7 18 -14 21 -14 7z"/>
<path d="M3567 5922 c-35 -36 -49 -61 -27 -47 6 4 13 -7 16 -24 9 -41 20 -39
34 7 6 20 16 47 22 60 21 42 -5 45 -45 4z"/>
<path d="M4010 5936 c0 -8 5 -18 10 -21 6 -3 10 1 10 9 0 8 -4 18 -10 21 -5 3
-10 -1 -10 -9z"/>
<path d="M2222 5885 c0 -16 2 -22 5 -12 2 9 2 23 0 30 -3 6 -5 -1 -5 -18z"/>
<path d="M4950 5771 l-35 -6 -3 -228 -2 -229 102 4 c130 4 188 29 232 101 33
54 45 147 27 215 -30 110 -166 171 -321 143z m194 -64 c54 -30 76 -76 76 -156
0 -131 -58 -192 -183 -195 l-72 -1 -3 188 -2 187 72 0 c57 0 82 -5 112 -23z"/>
<path d="M4740 5540 l0 -231 25 3 25 3 2 225 3 225 -27 3 -28 3 0 -231z"/>
<path d="M5364 5757 c-2 -7 -3 -109 -2 -227 l3 -215 126 -3 c109 -2 127 0 133
14 11 29 -4 34 -105 34 l-99 0 0 85 0 85 91 0 c86 0 90 1 87 21 -3 19 -10 21
-88 22 l-85 2 0 75 0 75 93 3 c84 2 92 4 92 22 0 19 -7 20 -120 20 -89 0 -122
-3 -126 -13z"/>
<path d="M5819 5743 c-36 -93 -145 -424 -141 -428 3 -3 15 -5 26 -5 17 0 26
13 46 73 l25 72 84 0 84 0 26 -70 c24 -62 30 -70 55 -73 21 -3 27 0 24 10 -3
7 -38 111 -79 231 l-74 217 -33 0 c-26 0 -35 -5 -43 -27z m78 -135 c17 -51 29
-96 26 -100 -5 -10 -133 -10 -133 -1 0 15 64 193 69 193 3 0 20 -42 38 -92z"/>
<path d="M4366 5741 c-13 -14 -37 -21 -99 -26 -108 -9 -179 -23 -192 -36 -7
-9 -3 -10 16 -5 35 8 43 -3 21 -28 -29 -32 -108 -164 -137 -229 -18 -40 -35
-61 -52 -68 -14 -5 -23 -12 -20 -16 4 -3 27 2 52 11 47 18 80 24 179 33 64 5
62 8 41 -52 l-6 -20 16 20 c25 31 85 126 85 134 -1 3 -13 -8 -28 -26 -25 -29
-33 -32 -130 -43 -57 -7 -106 -9 -110 -5 -12 12 71 155 93 160 57 11 92 15 98
9 3 -4 0 -19 -9 -35 -26 -51 0 -31 31 24 40 70 42 76 14 50 -23 -20 -110 -36
-124 -21 -3 3 14 32 39 65 l44 60 68 6 c38 3 72 3 76 1 4 -3 0 -21 -8 -40 -26
-62 -8 -48 30 22 37 71 41 87 12 55z"/>
<path d="M4583 5683 c-32 -32 -81 -84 -110 -116 -34 -38 -63 -59 -83 -63 -17
-4 -33 -11 -37 -17 -4 -6 0 -8 10 -4 53 20 -10 -85 -70 -116 -49 -26 -37 -29
27 -7 30 11 69 20 85 21 l30 2 -33 6 c-18 3 -33 10 -34 14 -1 20 68 98 92 103
14 2 39 9 56 14 58 19 67 14 60 -27 -3 -21 -6 -57 -6 -81 0 -40 -2 -44 -37
-59 -21 -9 -33 -18 -26 -20 7 -2 20 0 30 5 10 5 42 13 71 17 53 7 74 26 25 22
-26 -2 -28 1 -31 38 -2 22 -1 59 3 83 5 32 11 42 25 42 10 0 22 5 25 11 4 6 0
9 -11 7 -28 -5 -28 27 -1 110 29 90 19 93 -60 15z m13 -69 c-3 -26 -11 -53
-17 -60 -11 -14 -96 -30 -106 -21 -8 9 99 127 116 127 11 0 12 -10 7 -46z"/>
<path d="M1900 5603 c0 -179 19 -476 30 -487 18 -18 20 1 11 90 -6 49 -13 187
-17 307 -8 235 -24 297 -24 90z"/>
<path d="M2685 5689 c-142 -42 -161 -45 -168 -26 -3 9 -8 9 -17 1 -9 -10 -9
-37 3 -130 15 -118 15 -119 -5 -141 -28 -30 -35 -29 -36 8 -2 61 -74 128 -230
209 -73 39 -89 51 -97 78 -9 32 -33 39 -27 8 4 -20 -15 -20 -61 -1 -59 25 -53
-2 7 -30 62 -30 59 -20 75 -220 27 -336 28 -333 -26 -279 -29 29 -41 26 -21
-5 30 -49 120 -52 213 -6 75 37 119 78 148 139 25 52 58 83 76 72 5 -3 12 -30
15 -59 10 -76 48 -152 86 -172 34 -17 83 -13 135 12 34 17 115 92 115 107 0 5
-15 -4 -32 -20 -48 -45 -89 -70 -122 -76 -41 -8 -91 9 -108 35 -24 36 -50 131
-46 167 3 31 7 34 88 66 47 18 99 33 117 33 34 1 51 17 35 33 -9 9 -103 -13
-200 -49 -27 -10 -46 -13 -52 -7 -6 6 -11 46 -12 89 l-3 80 91 31 c163 54 214
75 214 85 0 13 -11 11 -155 -32z m-303 -206 c52 -51 66 -113 40 -173 -37 -83
-138 -160 -211 -160 -33 0 -32 -5 -51 220 -17 211 -19 238 -13 244 10 10 198
-95 235 -131z"/>
<path d="M3546 5706 c-33 -11 -62 -28 -64 -36 -4 -13 -3 -13 10 -2 27 21 29
-3 5 -39 -38 -58 -104 -172 -128 -221 -15 -30 -30 -49 -46 -53 -13 -3 -23 -10
-23 -15 0 -5 24 -1 54 10 30 10 60 18 67 18 31 -2 49 3 49 12 0 5 -13 7 -29 4
-16 -3 -32 -1 -35 5 -9 13 22 73 91 181 68 106 100 140 130 140 13 0 23 5 23
10 0 15 -39 10 -104 -14z"/>
<path d="M3785 5708 c-49 -11 -97 -26 -105 -34 -13 -14 -12 -15 13 -9 15 4 27
3 27 -2 0 -5 -22 -40 -48 -79 -62 -90 -126 -218 -119 -238 11 -29 116 -14 204
30 107 53 213 187 213 270 0 71 -55 89 -185 62z m129 -24 c59 -58 -54 -240
-189 -305 -60 -29 -119 -38 -130 -19 -9 14 74 168 141 263 l55 77 54 0 c35 0
59 -5 69 -16z"/>
<path d="M3051 5671 c-6 -11 -11 -28 -11 -38 0 -22 -57 -260 -69 -289 -7 -16
-22 -23 -56 -28 -57 -9 -55 -30 3 -34 23 -2 42 -4 42 -5 0 -1 -5 -18 -10 -37
-20 -67 -22 -100 -7 -100 9 0 18 23 26 71 14 77 20 82 100 95 l38 6 18 -116
c16 -107 27 -138 42 -122 4 3 -3 59 -14 124 -12 64 -19 120 -17 124 2 3 27 14
54 23 61 20 66 37 8 24 -73 -17 -71 -21 -93 155 -20 158 -32 190 -54 147z m33
-201 c4 -47 9 -93 12 -102 6 -20 -29 -38 -72 -38 -23 0 -24 3 -19 38 6 31 34
137 51 191 10 31 22 -8 28 -89z"/>
<path d="M3355 5120 c11 -18 -77 -329 -96 -341 -9 -6 -1 -9 24 -9 22 0 36 4
32 10 -3 5 1 33 9 62 53 194 76 263 92 275 16 11 13 13 -25 13 -24 0 -40 -4
-36 -10z"/>
<path d="M3605 5120 c9 -14 -75 -311 -93 -332 -14 -17 -13 -18 14 -18 28 0 30
3 47 74 10 41 26 101 36 133 11 32 24 77 30 100 7 25 18 43 29 46 9 3 -2 5
-26 6 -27 1 -41 -3 -37 -9z"/>
<path d="M3740 5124 c0 -3 7 -16 16 -30 23 -35 20 -143 -7 -203 -11 -25 -34
-61 -51 -78 -37 -38 -26 -43 22 -10 95 63 124 298 40 320 -11 3 -20 3 -20 1z"/>
<path d="M4007 5108 c2 -13 -10 -70 -27 -128 -17 -58 -36 -123 -42 -145 -6
-22 -17 -47 -24 -55 -11 -13 -8 -15 22 -15 29 0 34 3 34 24 0 32 29 144 41
156 5 5 9 19 9 31 0 35 32 128 49 142 12 10 8 12 -26 12 -36 0 -40 -2 -36 -22z"/>
<path d="M4194 5114 c9 -8 16 -30 17 -47 1 -31 1 -31 9 -7 16 51 12 70 -16 70
-23 0 -24 -1 -10 -16z"/>
<path d="M4472 5090 c-24 -38 -27 -50 -13 -50 12 0 21 -242 10 -256 -7 -9 2
-13 30 -16 35 -3 38 -1 30 14 -5 9 -12 67 -15 128 -4 61 -9 135 -13 163 l-7
52 -22 -35z"/>
<path d="M4660 5075 c0 -16 2 -17 65 -19 l40 -1 0 -90 0 -90 -52 -3 c-39 -2
-53 -7 -53 -18 0 -12 22 -14 143 -12 86 2 142 7 142 13 0 6 -22 11 -50 13 -27
2 -53 9 -57 15 -11 17 -7 149 5 165 5 7 31 12 59 12 35 0 48 4 46 13 -3 9 -44
13 -146 15 -122 2 -142 0 -142 -13z"/>
<path d="M4970 4966 l0 -126 109 0 c104 0 111 1 141 26 30 26 31 28 28 102 -3
69 -5 77 -31 96 -24 18 -45 22 -138 24 l-109 4 0 -126z m199 79 c6 -3 11 -39
11 -81 0 -86 -2 -89 -90 -87 l-55 1 -3 77 c-2 43 -1 83 1 89 5 12 118 13 136
1z"/>
<path d="M5322 5075 c-41 -18 -55 -55 -49 -129 8 -92 21 -100 167 -104 104 -3
120 -2 120 12 0 18 2 18 -102 16 -92 -2 -118 9 -118 50 0 30 1 30 56 30 73 0
70 24 -4 28 -50 3 -52 4 -52 32 0 24 6 30 35 40 19 6 67 10 107 8 60 -2 73 0
73 12 0 21 -186 26 -233 5z"/>
<path d="M5643 5084 c-47 -11 -63 -48 -63 -150 l0 -94 35 0 35 0 0 55 0 56 73
-3 72 -3 3 -53 3 -53 32 3 32 3 3 70 c4 84 -9 135 -40 154 -23 14 -143 24
-185 15z m142 -40 c9 -9 15 -26 13 -38 -3 -19 -10 -21 -75 -24 l-73 -3 0 29
c0 15 5 33 12 40 18 18 103 15 123 -4z"/>
<path d="M1988 5012 c8 -6 13 -46 16 -128 4 -145 0 -173 -28 -184 -14 -6 1 -9
49 -9 52 0 64 3 48 9 -22 9 -23 13 -23 159 0 134 2 150 18 154 9 3 -8 5 -38 6
-31 0 -50 -3 -42 -7z"/>
<path d="M2158 5009 c8 -9 12 -54 12 -148 0 -138 -3 -153 -30 -164 -8 -4 30
-5 85 -4 162 6 219 49 219 167 1 66 -26 118 -69 139 -41 20 -235 29 -217 10z
m182 -24 c60 -31 78 -158 32 -223 -28 -38 -99 -66 -136 -53 l-26 11 0 140 0
140 50 0 c28 0 64 -7 80 -15z"/>
<path d="M2528 4873 c3 -139 2 -149 -17 -165 -20 -15 -14 -16 99 -17 l120 -2
10 26 c16 41 12 46 -15 19 -22 -22 -32 -25 -88 -22 l-62 3 -3 54 c-5 90 0 99
53 96 26 -2 53 -9 61 -15 12 -10 14 -8 14 14 0 20 -3 25 -14 19 -8 -4 -38 -6
-66 -5 l-51 4 3 61 3 62 40 6 c34 5 31 6 -25 8 l-65 1 3 -147z"/>
<path d="M2692 5007 c16 -6 31 -19 34 -30 9 -28 16 -14 8 17 -5 21 -12 26 -38
25 l-31 -1 27 -11z"/>
<path d="M2929 4974 c-11 -27 -29 -67 -38 -89 -10 -22 -26 -62 -37 -89 -10
-26 -31 -61 -46 -77 l-26 -29 46 0 c42 0 44 1 29 18 -14 15 -14 21 -1 52 19
44 17 42 65 47 65 7 87 -3 104 -43 18 -44 18 -39 -1 -58 -14 -14 -10 -16 41
-15 53 2 55 3 38 19 -19 17 -25 29 -94 195 -22 55 -45 104 -50 109 -5 6 -17
-11 -30 -40z m47 -89 c12 -29 19 -56 16 -59 -10 -10 -102 -6 -102 4 0 23 45
117 55 114 5 -2 20 -29 31 -59z"/>
<path d="M4094 4983 c-23 -23 -27 -33 -18 -37 8 -3 14 -20 15 -38 1 -25 5 -16
19 37 10 39 17 70 16 70 0 0 -15 -14 -32 -32z"/>
<path d="M4347 4883 c-4 -3 -7 -11 -7 -17 0 -6 5 -5 12 2 6 6 9 14 7 17 -3 3
-9 2 -12 -2z"/>
<path d="M4122 4804 c-28 -30 -30 -34 -13 -34 13 0 27 12 36 31 9 17 15 32 13
33 -2 2 -18 -12 -36 -30z"/>
<path d="M4275 4776 c-18 -13 -18 -14 8 -9 15 3 24 9 21 14 -7 12 -7 12 -29
-5z"/>
<path d="M5158 4769 c-10 -5 -18 -18 -18 -27 0 -10 -15 -35 -32 -57 -18 -22
-27 -36 -20 -32 7 5 12 3 12 -7 0 -25 -40 -125 -56 -141 -9 -8 -11 -15 -6 -15
22 0 57 57 93 151 21 57 46 107 54 112 8 4 15 12 15 17 0 13 -20 12 -42 -1z"/>
<path d="M5242 4759 c-53 -27 -74 -57 -70 -101 2 -27 7 -33 28 -34 13 -1 32 3
42 9 9 6 20 9 23 6 8 -9 -26 -102 -47 -126 l-20 -21 35 1 c23 1 33 5 30 13 -2
7 0 15 6 19 6 3 11 16 11 27 0 11 14 65 31 120 24 79 34 99 47 96 50 -9 -1
-227 -63 -270 -6 -5 -3 -8 7 -8 22 0 67 56 89 112 22 54 24 127 3 156 -21 30
-93 30 -152 1z m78 -2 c0 -19 -53 -91 -81 -111 -20 -14 -25 -14 -37 -2 -13 12
-12 19 8 51 33 54 110 97 110 62z"/>
<path d="M5494 4754 c-21 -20 -25 -32 -22 -62 4 -31 -1 -41 -29 -69 -37 -37
-43 -75 -17 -111 20 -29 59 -28 101 4 l33 25 10 -25 c5 -15 13 -26 17 -26 15
0 11 52 -5 69 -16 15 -18 15 -37 -6 -32 -35 -61 -38 -80 -9 -14 22 -15 28 -1
60 8 20 19 36 25 36 5 0 7 17 4 38 -4 28 0 44 17 65 41 52 80 20 41 -34 -19
-25 -20 -30 -6 -35 39 -15 68 35 46 82 -15 33 -63 33 -97 -2z"/>
<path d="M5709 4757 c-49 -26 -89 -77 -89 -114 0 -13 11 -33 25 -45 31 -27 31
-39 -1 -77 -14 -17 -22 -31 -17 -31 11 0 43 35 67 73 9 15 21 25 26 22 6 -3 7
1 4 9 -6 15 49 141 67 151 5 4 9 4 9 0 0 -16 -35 -132 -43 -142 -5 -7 -11 -35
-13 -63 -4 -43 -2 -50 14 -50 21 0 59 36 49 46 -4 4 -9 -1 -13 -10 -3 -9 -10
-16 -15 -16 -17 0 -9 46 26 154 19 60 35 110 35 112 0 14 -94 0 -131 -19z m49
-6 c-23 -63 -76 -151 -88 -149 -37 7 -23 74 25 123 32 32 72 48 63 26z"/>
<path d="M5045 4748 c-58 -32 -90 -93 -65 -123 14 -17 66 -20 75 -5 3 6 -5 10
-19 10 -54 0 -45 56 16 100 39 29 35 41 -7 18z"/>
<path d="M3733 4688 l37 -10 0 -148 c0 -82 -4 -151 -9 -154 -5 -4 -21 -7 -35
-8 -14 -1 -26 -6 -26 -10 0 -4 35 -8 78 -8 75 0 77 1 54 18 -22 17 -22 22 -20
167 l3 149 25 7 c14 4 -11 7 -60 7 -75 0 -81 -1 -47 -10z"/>
<path d="M3938 4690 c21 -9 22 -13 22 -158 0 -113 -3 -152 -13 -161 -8 -6 -17
-8 -20 -4 -4 3 -7 1 -7 -6 0 -10 28 -12 123 -9 139 4 179 18 223 76 37 48 40
139 6 194 -39 62 -87 78 -233 77 -84 0 -117 -3 -101 -9z m230 -24 c11 -9 26
-16 33 -14 27 6 50 -62 47 -137 -3 -70 -29 -129 -53 -121 -5 2 -23 -3 -38 -11
-17 -8 -49 -13 -80 -11 l-52 3 -3 135 c-4 186 -5 183 68 178 37 -3 66 -11 78
-22z m-191 -213 c-1 -43 -3 -10 -3 72 0 83 2 118 3 78 2 -40 2 -107 0 -150z"/>
<path d="M4232 4560 c0 -14 2 -19 5 -12 2 6 2 18 0 25 -3 6 -5 1 -5 -13z"/>
<path d="M4231 4490 c-1 -15 -6 -31 -13 -38 -9 -9 -9 -12 0 -12 13 0 26 43 19
62 -3 7 -6 2 -6 -12z"/>
<path d="M4197 4423 c-4 -3 -7 -11 -7 -17 0 -6 5 -5 12 2 6 6 9 14 7 17 -3 3
-9 2 -12 -2z"/>
<path d="M4360 4691 c17 -5 27 -16 31 -36 l6 -30 5 30 c3 17 6 -38 7 -121 1
-149 1 -152 -21 -159 -13 -4 -26 -7 -30 -6 -5 1 -8 -4 -8 -9 0 -7 51 -10 147
-8 l146 3 13 38 c11 30 11 37 0 37 -18 0 -37 -24 -34 -41 3 -14 -9 -16 -100
-22 -32 -1 -57 2 -63 9 -6 7 -9 43 -7 81 l3 68 48 0 c26 0 47 3 47 8 0 4 -22
7 -50 7 l-50 0 0 59 c0 84 4 91 55 91 52 0 92 -14 123 -42 24 -23 28 -15 12
26 l-10 26 -147 -1 c-82 -1 -137 -4 -123 -8z"/>
<path d="M4822 4693 c-17 -7 -5 -23 18 -23 14 0 29 -29 69 -130 57 -143 61
-170 31 -170 -11 0 -20 -4 -20 -10 0 -6 27 -10 60 -10 56 0 79 13 46 26 -15 6
-29 36 -45 90 -8 27 -6 31 8 27 12 -3 16 3 15 26 -2 47 -3 48 -24 21 l-19 -25
-19 45 c-10 25 -27 66 -37 93 -15 40 -22 47 -44 46 -14 0 -32 -3 -39 -6z"/>
<path d="M4837 4653 c-11 -19 -25 -83 -16 -78 5 4 9 13 9 21 0 17 26 19 34 2
3 -7 4 1 0 17 -6 33 -19 51 -27 38z"/>
<path d="M3270 4601 c0 -11 -3 -26 -6 -34 -3 -10 1 -15 12 -14 15 2 20 -11 29
-76 6 -42 9 -80 6 -82 -2 -3 -23 -6 -45 -7 -41 -1 -41 -1 9 -7 48 -6 49 -7 60
-48 5 -23 16 -48 23 -55 16 -16 16 -19 -13 95 -13 54 -25 126 -26 160 -2 34
-7 68 -12 75 -14 19 -37 14 -37 -7z"/>
<path d="M4393 4550 c0 -41 2 -58 4 -37 2 20 2 54 0 75 -2 20 -4 3 -4 -38z"/>
<path d="M2540 4595 c0 -8 -16 -21 -35 -30 -19 -9 -40 -24 -46 -32 -8 -8 2 -6
24 7 20 12 40 19 44 17 5 -3 4 -53 0 -111 -9 -100 -3 -186 11 -171 4 3 5 36 4
73 -3 87 13 225 28 230 8 3 8 8 -1 18 -15 18 -29 18 -29 -1z"/>
<path d="M2611 4601 c-9 -6 -4 -10 18 -13 33 -5 42 6 15 16 -19 7 -16 8 -33
-3z"/>
<path d="M2841 4590 c-70 -27 -94 -82 -49 -112 l22 -14 -36 -35 c-20 -19 -40
-45 -43 -59 -6 -21 -3 -19 16 10 29 43 100 80 151 80 69 0 40 19 -33 22 -55 2
-74 7 -83 20 -9 14 -6 23 14 43 32 32 172 64 196 44 16 -13 30 -6 19 10 -10
17 -125 11 -174 -9z"/>
<path d="M2365 4593 c-22 -3 -44 -9 -50 -15 -7 -6 -2 -9 15 -6 l25 3 -4 -115
c-2 -63 -4 -131 -5 -150 -1 -30 -5 -36 -31 -41 -22 -5 -14 -7 30 -8 58 -1 59
-1 36 15 -23 16 -23 19 -16 131 9 150 14 167 51 173 24 5 26 7 11 13 -10 4
-19 6 -20 5 -1 -1 -20 -3 -42 -5z"/>
<path d="M2688 4566 c25 -33 27 -70 8 -143 -19 -73 -54 -130 -90 -147 -31 -15
-31 -16 -5 -16 43 0 82 56 113 162 24 84 21 110 -16 144 l-32 29 22 -29z"/>
<path d="M4566 4573 c-4 -16 -3 -60 2 -86 1 -5 7 -5 12 -2 13 8 13 105 1 105
-5 0 -12 -8 -15 -17z"/>
<path d="M5151 4542 c-10 -19 2 -52 20 -52 6 0 7 5 4 10 -4 6 -1 17 5 25 12
14 6 35 -10 35 -5 0 -14 -8 -19 -18z"/>
<path d="M4777 4498 c-16 -51 -16 -52 2 -29 15 20 24 23 74 20 34 -3 57 0 57
6 0 6 -19 9 -45 7 -62 -5 -79 2 -65 28 6 11 7 20 2 20 -4 0 -16 -24 -25 -52z"/>
<path d="M3236 4495 c-9 -26 -7 -32 5 -12 6 10 9 21 6 23 -2 3 -7 -2 -11 -11z"/>
<path d="M5095 4355 c0 -69 3 -85 15 -85 12 0 14 15 12 85 -2 57 -7 85 -15 85
-8 0 -12 -27 -12 -85z"/>
<path d="M5190 4355 c0 -61 3 -85 13 -85 9 0 12 24 12 85 0 61 -3 85 -12 85
-10 0 -13 -24 -13 -85z"/>
<path d="M5402 4367 c1 -40 -2 -78 -6 -85 -5 -8 0 -12 13 -12 17 0 19 5 14 34
-3 20 -1 36 6 41 9 5 9 10 0 21 -6 8 -9 27 -5 44 4 23 2 30 -9 30 -13 0 -15
-14 -13 -73z"/>
<path d="M5620 4387 c-43 -94 -43 -95 -27 -74 9 10 28 17 51 17 33 0 37 -3 43
-30 3 -16 9 -30 13 -30 5 0 15 -2 23 -5 8 -4 -3 28 -28 80 -23 47 -44 87 -46
90 -3 2 -15 -19 -29 -48z m40 -16 c15 -28 13 -31 -20 -31 -16 0 -30 3 -30 6 0
12 21 44 30 44 5 0 14 -9 20 -19z"/>
<path d="M4748 4418 c-4 -10 -5 -25 -2 -33 4 -8 1 -15 -6 -15 -6 0 -8 5 -5 10
9 14 -8 13 -23 -2 -22 -22 -13 -28 40 -28 l51 0 -20 23 c-12 12 -23 31 -25 42
-3 18 -4 18 -10 3z"/>
<path d="M4930 4421 c0 -6 4 -13 10 -16 6 -3 7 1 4 9 -7 18 -14 21 -14 7z"/>
<path d="M5300 4412 c31 -25 31 -84 0 -117 -30 -32 -11 -33 24 0 19 17 26 34
26 60 0 37 -28 75 -56 75 -13 0 -11 -4 6 -18z"/>
<path d="M3184 4392 c-11 -10 -19 -22 -17 -28 2 -6 -11 -27 -30 -48 -24 -28
-41 -39 -64 -40 -42 -1 -31 -16 12 -16 30 0 39 6 62 43 15 23 36 52 46 64 25
28 18 47 -9 25z"/>
<path d="M5485 4361 c-3 -5 -1 -12 5 -16 5 -3 10 1 10 9 0 18 -6 21 -15 7z"/>
<path d="M2740 4333 c0 -15 42 -51 73 -62 55 -21 142 -10 194 24 14 9 22 19
20 22 -3 2 -16 -3 -30 -12 -30 -19 -112 -30 -161 -21 -19 4 -49 18 -66 32 -16
14 -30 22 -30 17z"/>
<path d="M3650 4110 l0 -200 45 0 45 0 0 200 0 200 -45 0 -45 0 0 -200z"/>
<path d="M3797 4303 c-4 -3 -7 -93 -7 -200 l0 -193 98 0 c139 0 136 -4 140
166 5 178 1 198 -42 218 -34 16 -176 23 -189 9z m128 -194 c0 -103 -3 -124
-15 -124 -12 0 -15 19 -13 110 2 150 1 147 16 143 9 -4 12 -38 12 -129z"/>
<path d="M4080 4110 l0 -200 145 0 144 0 7 35 c4 24 12 35 24 35 12 0 20 -11
24 -35 7 -34 8 -35 57 -35 l50 0 -6 33 c-15 90 -44 278 -50 320 l-6 47 -73 0
-74 0 -5 -32 c-3 -18 -14 -95 -23 -170 -16 -128 -24 -153 -39 -128 -3 5 -12 7
-20 3 -8 -3 -25 -3 -38 1 -20 5 -22 10 -19 50 4 42 6 45 35 48 28 3 32 7 35
36 3 31 2 32 -32 32 -35 0 -36 1 -36 39 0 37 2 40 33 43 29 3 32 6 35 41 l3
37 -85 0 -86 0 0 -200z m332 -5 c3 -44 1 -50 -17 -50 -17 0 -19 6 -16 50 5 86
28 86 33 0z"/>
<path d="M5505 4280 c-10 -11 -13 -20 -8 -20 13 0 38 29 31 35 -3 3 -13 -4
-23 -15z"/>
<path d="M5565 4280 c-3 -5 1 -10 9 -10 9 0 16 5 16 10 0 6 -4 10 -9 10 -6 0
-13 -4 -16 -10z"/>
<path d="M4758 4193 c-10 -2 -18 -13 -18 -24 0 -15 7 -19 39 -19 l39 0 -5 -77
c-2 -43 -9 -91 -14 -107 -13 -42 3 -56 68 -56 143 0 186 93 91 196 -55 59
-150 101 -200 87z m149 -82 c54 -39 88 -94 74 -120 -13 -23 -61 -41 -112 -41
-36 0 -39 2 -39 28 0 74 14 162 25 162 7 0 30 -13 52 -29z"/>
<path d="M5352 4162 c-8 -15 -32 -67 -54 -117 -22 -49 -41 -92 -44 -94 -7 -7
-89 -10 -122 -4 -30 5 -33 8 -30 37 3 29 6 31 52 38 53 7 76 22 60 38 -6 6
-23 5 -47 -2 -47 -14 -62 -3 -52 42 7 33 35 50 81 50 16 0 24 5 21 13 -6 17
-140 15 -161 -2 -19 -16 -12 -31 15 -31 37 0 14 -75 -28 -91 l-28 -11 28 -14
c18 -10 27 -23 27 -39 0 -42 33 -65 94 -65 91 0 115 9 131 46 13 32 17 34 64
34 46 0 51 -2 52 -22 3 -48 5 -53 23 -56 13 -3 17 0 13 11 -3 8 -13 61 -22
118 -18 116 -29 149 -47 149 -7 0 -19 -12 -26 -28z m38 -93 c0 -39 -4 -42 -47
-38 -12 1 -4 41 13 66 20 32 34 20 34 -28z"/>
<path d="M4643 4167 c-4 -7 -9 -66 -11 -133 -4 -109 -3 -122 14 -128 9 -4 21
-3 25 1 6 6 13 183 10 249 -1 17 -29 25 -38 11z"/>
<path d="M2500 3965 c0 -210 18 -240 22 -37 4 160 0 212 -13 212 -5 0 -9 -72
-9 -175z"/>
<path d="M2628 4135 c-3 -4 -7 -83 -8 -176 l-1 -169 67 0 c87 0 139 24 177 82
51 80 23 203 -57 242 -39 19 -165 34 -178 21z m152 -33 c73 -28 99 -137 53
-225 -17 -34 -83 -66 -135 -67 l-37 0 -3 145 c-2 80 -1 150 0 155 4 12 85 6
122 -8z"/>
<path d="M2970 3965 l0 -175 85 0 c104 0 114 18 13 22 l-73 3 0 70 0 70 55 3
c85 4 93 16 15 22 l-70 5 0 65 0 65 68 3 c94 4 84 22 -13 22 l-80 0 0 -175z"/>
<path d="M3315 4104 c-8 -20 -15 -39 -15 -41 0 -3 -6 -19 -14 -36 -8 -18 -31
-72 -51 -122 -20 -49 -39 -96 -42 -102 -3 -7 1 -13 8 -13 8 0 24 23 36 50 l21
49 93 -3 93 -3 12 -36 c12 -34 11 -38 -9 -52 -12 -8 -16 -15 -9 -15 20 0 14
-14 -43 -105 -30 -49 -55 -94 -55 -101 0 -7 -12 -22 -27 -34 l-28 -22 27 7
c14 4 43 13 64 20 28 10 33 14 17 15 -15 0 -23 6 -23 18 0 23 111 195 139 214
20 14 20 16 4 20 -13 4 -38 55 -82 166 -71 177 -87 195 -116 126z m61 -51 c9
-27 23 -63 31 -82 23 -59 21 -61 -62 -61 -41 0 -75 4 -75 9 0 5 13 40 29 77
15 38 31 77 34 87 11 29 25 19 43 -30z"/>
<path d="M4091 3820 c-13 -11 -18 -20 -12 -20 7 0 8 -8 1 -27 -9 -26 -9 -27 5
-9 8 11 15 24 15 30 0 5 7 18 17 28 21 24 4 23 -26 -2z"/>
<path d="M4240 3750 c-41 -44 -76 -84 -78 -90 -2 -5 -11 -10 -20 -10 -9 0 -24
-5 -32 -11 -13 -9 -12 -10 3 -5 22 7 22 1 -1 -32 -33 -48 -34 -52 -13 -52 14
0 19 5 15 15 -4 8 5 31 20 49 20 27 37 37 76 45 28 6 53 11 56 11 3 0 4 -28 2
-62 -3 -53 -6 -64 -26 -74 -38 -19 -34 -21 18 -10 33 7 47 13 40 20 -11 11
-14 95 -4 120 3 9 16 16 28 17 21 0 21 0 -2 9 -23 10 -23 26 -1 88 11 29 11
52 2 52 -5 0 -42 -36 -83 -80z m41 -25 c-6 -37 -9 -40 -44 -46 -25 -4 -37 -2
-37 6 0 10 81 88 86 82 1 -1 -1 -20 -5 -42z"/>
<path d="M3618 3794 c-47 -14 -65 -28 -30 -22 23 4 19 -11 -17 -64 -17 -24
-46 -75 -66 -111 l-35 -68 22 -8 c13 -5 30 -6 38 -2 12 4 12 6 -2 9 -10 2 -18
8 -18 13 0 19 51 114 98 184 42 60 53 70 81 73 115 11 117 -73 5 -185 -68 -68
-70 -82 -6 -30 92 74 139 176 100 215 -16 16 -112 14 -170 -4z"/>
<path d="M3998 3803 c12 -2 30 -2 40 0 9 3 -1 5 -23 4 -22 0 -30 -2 -17 -4z"/>
<path d="M3914 3785 c3 -8 -12 -41 -33 -72 -21 -32 -52 -86 -70 -120 -17 -35
-36 -63 -43 -63 -6 0 -9 -3 -5 -6 3 -3 21 -1 40 5 27 9 34 16 30 31 -3 10 7
41 23 69 21 40 33 51 53 52 14 0 20 3 14 6 -15 6 -17 39 -3 48 5 3 19 19 30
35 l21 30 -31 0 c-24 0 -31 -4 -26 -15z"/>
<path d="M4440 3650 c0 -97 3 -131 12 -128 16 6 16 250 0 256 -9 3 -12 -33
-12 -128z"/>
<path d="M4537 3773 c-4 -3 -7 -62 -7 -130 0 -120 0 -123 23 -124 104 -7 158
19 177 86 22 79 -8 147 -73 167 -30 8 -112 10 -120 1z m112 -24 c37 -13 61
-53 61 -105 0 -53 -53 -104 -109 -104 l-41 0 0 103 c0 57 3 107 7 110 10 10
46 8 82 -4z"/>
<path d="M4790 3650 l0 -130 70 0 c81 0 95 18 18 22 l-53 3 -3 48 -3 47 50 0
c64 0 67 18 4 22 l-48 3 0 45 0 45 53 3 c74 4 55 22 -24 22 l-64 0 0 -130z"/>
<path d="M5011 3656 c-46 -138 -46 -139 -29 -134 6 2 17 20 23 39 11 33 13 34
65 34 52 0 54 -1 62 -32 8 -32 24 -50 35 -39 3 3 -12 58 -33 123 -57 175 -67
175 -123 9z m82 27 c8 -27 13 -51 10 -55 -6 -11 -61 -10 -67 0 -6 10 26 102
36 102 4 0 14 -21 21 -47z"/>
<path d="M3991 3709 c-13 -11 -21 -22 -18 -26 4 -3 1 -15 -5 -27 -16 -32 6 -6
31 37 26 42 25 44 -8 16z"/>
<path d="M2732 3698 c-7 -7 -12 -16 -12 -21 0 -5 -9 -20 -19 -34 -11 -13 -18
-30 -15 -38 3 -7 -4 -33 -16 -57 -22 -42 -22 -43 -1 -23 11 11 26 38 34 59 14
41 37 60 37 32 0 -10 9 -16 23 -16 17 0 19 2 8 9 -21 13 0 57 34 73 35 16 41
5 17 -34 -11 -18 -18 -38 -15 -45 2 -6 -5 -30 -17 -52 -20 -41 -20 -41 0 -41
13 0 20 7 20 18 0 10 11 52 25 92 14 40 25 77 25 80 0 23 -102 -17 -119 -47
-9 -16 -10 -16 -11 -1 0 9 7 23 15 32 8 8 15 17 15 20 0 10 -15 7 -28 -6z"/>
<path d="M3155 3680 c-18 -34 -18 -40 -5 -40 6 0 10 7 10 15 0 8 5 15 11 15 6
0 8 -8 5 -17 -3 -10 -8 -30 -12 -45 -7 -31 -14 -34 -33 -15 -13 13 -24 1 -48
-58 l-13 -30 27 33 c34 40 58 43 49 7 -9 -34 1 -50 20 -34 10 8 11 14 4 19 -7
5 -3 31 14 84 14 43 23 82 20 87 -11 18 -34 8 -49 -21z"/>
<path d="M2887 3676 c6 -31 -22 -130 -43 -150 -8 -9 -11 -16 -6 -16 37 0 84
129 62 171 -14 26 -18 24 -13 -5z"/>
<path d="M2960 3679 c-7 -11 -9 -31 -6 -44 5 -18 1 -25 -14 -30 -19 -6 -26
-33 -20 -75 5 -33 52 -34 76 -2 10 13 13 13 22 -4 10 -16 13 -17 21 -4 7 10 6
19 -4 29 -12 13 -17 12 -34 -3 -11 -10 -28 -16 -38 -14 -23 4 -29 50 -9 68 9
7 16 27 16 44 0 18 5 37 12 44 9 9 9 12 0 12 -6 0 -16 -9 -22 -21z"/>
<path d="M3020 3686 c0 -8 -7 -21 -15 -30 -17 -17 -4 -31 20 -22 17 6 20 52 5
61 -5 3 -10 -1 -10 -9z"/>
<path d="M3086 3665 c-27 -25 -32 -50 -16 -75 7 -12 10 -8 10 15 0 18 10 41
25 58 32 34 17 36 -19 2z"/>
<path d="M2618 3663 c-21 -26 -18 -67 7 -71 16 -2 17 -1 5 7 -12 8 -13 15 -3
42 15 39 12 46 -9 22z"/>
<path d="M4008 3590 c-9 -15 -25 -20 -58 -22 -38 -1 -40 -2 -11 -5 29 -4 32
-7 28 -29 -2 -13 -3 -24 -2 -24 1 0 15 19 31 43 16 23 33 45 39 49 6 5 5 8 -2
8 -7 0 -18 -9 -25 -20z"/>
<path d="M3858 3553 c6 -2 18 -2 25 0 6 3 1 5 -13 5 -14 0 -19 -2 -12 -5z"/>
<path d="M2605 3540 c-3 -5 -3 -15 1 -21 6 -11 23 6 24 24 0 10 -18 9 -25 -3z"/>
<path d="M2725 3540 c-3 -5 -3 -15 1 -21 6 -11 23 6 24 24 0 10 -18 9 -25 -3z"/>
<path d="M4030 3530 c-8 -5 -10 -10 -5 -10 6 0 17 5 25 10 8 5 11 10 5 10 -5
0 -17 -5 -25 -10z"/>
<path d="M3558 3523 c7 -3 16 -2 19 1 4 3 -2 6 -13 5 -11 0 -14 -3 -6 -6z"/>
<path d="M4938 3414 c-8 -15 -27 -96 -33 -146 -6 -45 -8 -48 -43 -54 -20 -3
-53 -10 -72 -15 -19 -5 -38 -9 -42 -9 -25 0 19 125 56 163 10 9 31 17 47 17
18 0 29 5 29 14 0 8 -7 13 -17 11 -10 -2 -30 -6 -45 -9 -27 -6 -68 -64 -91
-131 -7 -19 -16 -35 -22 -35 -5 0 -15 27 -22 61 -7 35 -23 76 -38 95 -22 29
-29 33 -46 23 -12 -6 -30 -31 -40 -55 -11 -24 -25 -44 -31 -44 -6 0 -7 -7 -2
-17 4 -10 14 -65 23 -122 9 -58 21 -106 26 -108 6 -2 3 43 -9 116 -19 116 -19
119 0 157 14 30 25 39 43 39 40 0 63 -52 65 -140 1 -62 -3 -78 -22 -105 -28
-38 -23 -52 6 -16 27 35 42 32 42 -8 0 -51 16 -58 120 -54 l90 3 0 47 c0 52
16 63 38 27 7 -12 16 -19 18 -16 3 3 0 14 -7 26 -7 11 -10 23 -6 27 12 12 21
-5 22 -44 1 -36 31 -109 42 -99 3 3 0 21 -6 39 -5 18 -11 51 -13 73 -3 39 -2
40 32 45 27 4 31 7 17 13 -10 4 -30 7 -43 7 -23 0 -24 3 -24 61 0 33 -4 58 -8
55 -5 -3 -7 -30 -4 -59 5 -60 -1 -69 -36 -56 -25 9 -25 21 0 136 9 43 14 51
25 42 10 -9 13 -8 13 3 0 19 -26 53 -32 42z m-41 -275 c-3 -33 -7 -62 -9 -64
-2 -2 -33 -7 -69 -11 -76 -7 -99 6 -99 59 0 32 1 33 78 54 112 30 106 33 99
-38z"/>
<path d="M3700 3326 c0 -33 4 -55 9 -51 9 5 4 95 -5 104 -2 2 -4 -21 -4 -53z"/>
<path d="M4195 3373 c-11 -2 -40 -11 -65 -20 -25 -9 -55 -16 -67 -15 -26 2
-27 -9 -14 -91 6 -34 4 -50 -5 -58 -10 -8 -16 -3 -27 24 -16 37 -45 61 -124
101 -29 14 -53 33 -53 41 0 18 -12 19 -27 4 -8 -8 -13 -8 -17 0 -9 13 -26 15
-26 2 0 -5 14 -14 30 -21 27 -11 30 -17 32 -59 3 -76 5 -103 13 -168 8 -63 2
-76 -23 -51 -9 9 -12 9 -12 0 0 -7 1 -12 3 -12 1 0 16 -4 33 -9 22 -6 37 -5
55 6 24 14 24 14 -7 8 l-31 -6 -7 93 c-4 51 -9 110 -13 131 -5 32 -3 37 13 37
27 0 120 -55 138 -82 27 -38 20 -80 -21 -128 -30 -35 -32 -40 -12 -27 14 9 35
35 48 57 12 22 28 40 36 40 8 0 20 -23 30 -55 21 -73 47 -91 98 -70 21 8 37
17 37 19 0 2 -20 1 -44 -1 -38 -5 -46 -2 -59 18 -9 13 -19 42 -22 64 -8 45 -1
51 80 76 43 12 69 29 45 29 -7 0 -40 -9 -73 -21 -68 -24 -77 -19 -77 42 0 40
-4 37 105 75 70 24 87 40 30 27z"/>
<path d="M4355 3328 c-26 -136 -40 -171 -70 -184 -28 -12 -28 -13 -6 -14 21 0
23 -4 19 -40 -5 -52 8 -52 17 0 5 31 12 41 31 46 36 9 54 -2 54 -34 0 -45 11
-92 22 -92 6 0 8 10 5 23 -3 12 -9 43 -12 70 -7 46 -7 47 26 62 l34 15 -36 -6
-36 -6 -12 91 c-14 98 -26 121 -36 69z m29 -115 c5 -36 3 -44 -15 -54 -36 -19
-44 2 -24 66 20 61 28 58 39 -12z"/>
<path d="M4478 3222 c3 -158 7 -182 27 -182 16 0 20 16 6 24 -4 3 -10 63 -13
134 -2 70 -9 135 -14 145 -6 11 -8 -30 -6 -121z"/>
<path d="M4961 3334 c0 -11 3 -14 6 -6 3 7 2 16 -1 19 -3 4 -6 -2 -5 -13z"/>
<path d="M3711 3148 c-1 -88 5 -122 19 -113 5 3 4 21 -1 40 -6 20 -8 43 -5 53
2 9 1 37 -4 62 -7 39 -8 34 -9 -42z"/>
<path d="M4229 3093 c-13 -16 -12 -17 4 -4 16 13 21 21 13 21 -2 0 -10 -8 -17
-17z"/>
<path d="M4248 2759 c-3 -132 1 -157 20 -146 10 7 3 287 -8 287 -5 0 -10 -63
-12 -141z"/>
<path d="M4332 2758 l3 -143 34 -3 c121 -12 189 69 161 189 -18 73 -54 99
-136 99 l-65 0 3 -142z m131 92 c36 -29 51 -79 38 -128 -17 -60 -41 -76 -113
-73 l-28 1 0 110 0 110 39 0 c23 0 48 -8 64 -20z"/>
<path d="M4582 2758 l3 -143 64 0 c82 0 98 22 19 27 l-53 3 -3 48 -3 47 50 0
c39 0 51 4 51 15 0 16 -3 17 -60 19 -34 1 -35 2 -38 48 l-3 47 53 3 c76 4 66
22 -15 26 l-68 3 3 -143z"/>
<path d="M4791 2778 c-53 -152 -58 -172 -41 -166 8 2 20 23 29 46 15 41 16 42
63 42 48 0 49 -1 68 -45 11 -25 24 -45 30 -45 15 0 13 10 -19 97 -16 43 -37
102 -47 132 -11 30 -24 56 -30 58 -5 2 -30 -52 -53 -119z m75 7 c20 -49 18
-55 -21 -55 -38 0 -42 8 -24 59 14 40 27 39 45 -4z"/>
<path d="M3956 2876 c-23 -11 -25 -14 -11 -20 9 -3 20 -4 25 -1 9 6 50 -73 50
-96 0 -12 -2 -12 -10 1 -5 8 -10 11 -10 5 0 -15 16 -37 26 -35 13 3 54 -109
47 -127 -4 -11 -2 -14 5 -9 7 4 12 1 12 -8 0 -8 -12 -19 -27 -24 -24 -9 -17
-11 42 -11 64 -1 68 0 48 14 -12 8 -38 59 -62 122 -23 60 -46 117 -51 128 -5
11 -14 32 -20 48 -10 30 -21 32 -64 13z"/>
<path d="M2895 2871 l30 -6 3 -150 c1 -101 -1 -145 -8 -135 -8 13 -10 13 -10
-2 0 -9 -10 -19 -22 -21 -13 -2 9 -5 47 -5 52 -1 65 1 53 9 -16 9 -18 27 -18
155 0 141 1 145 23 154 16 6 1 9 -53 8 -48 0 -64 -3 -45 -7z"/>
<path d="M3108 2864 l32 -16 0 -135 0 -134 -32 -14 c-32 -14 -31 -14 42 -13
41 0 66 3 55 5 -11 3 -23 10 -27 17 -4 6 -8 67 -8 136 0 98 3 130 16 148 l15
22 -63 0 -63 0 33 -16z"/>
<path d="M3250 2871 c25 -4 56 -13 70 -21 14 -8 29 -14 34 -15 19 0 46 -71 46
-123 0 -56 -17 -99 -47 -122 -15 -12 -16 -12 -5 0 6 8 12 18 12 23 0 5 -9 -2
-20 -16 -12 -15 -38 -30 -63 -36 -42 -10 -42 -10 15 -6 98 6 148 61 148 161 0
102 -68 165 -176 163 l-59 -2 45 -6z"/>
<path d="M3522 2864 l37 -16 -2 -136 -2 -137 -35 -12 c-33 -11 -29 -12 45 -11
44 0 71 3 60 5 -11 3 -23 10 -27 17 -13 20 -8 280 5 288 28 18 104 8 142 -17
43 -30 50 -28 36 9 l-11 26 -142 -1 c-138 0 -142 -1 -106 -15z"/>
<path d="M3966 2824 c-8 -22 -8 -26 3 -19 6 3 14 -3 20 -12 8 -14 10 -15 10
-3 0 8 -6 23 -13 33 -12 16 -14 16 -20 1z"/>
<path d="M3711 2768 c-1 -10 -5 -18 -10 -18 -5 0 -7 -10 -3 -22 5 -20 3 -21
-10 -10 -11 9 -18 10 -23 2 -3 -5 1 -10 10 -10 8 0 21 -11 27 -25 18 -39 25
-29 21 28 -5 56 -11 83 -12 55z"/>
<path d="M3930 2740 c0 -11 2 -20 4 -20 2 0 6 9 9 20 3 11 1 20 -4 20 -5 0 -9
-9 -9 -20z"/>
<path d="M3383 2705 c0 -27 2 -38 4 -22 2 15 2 37 0 50 -2 12 -4 0 -4 -28z"/>
<path d="M3899 2656 c-12 -27 -22 -59 -23 -72 0 -12 -4 -20 -8 -17 -5 2 -16
-1 -25 -6 -10 -6 -16 -11 -13 -11 14 -3 90 -5 90 -2 0 1 -7 13 -15 25 -11 18
-12 31 -4 60 l10 37 64 0 c41 0 65 -4 68 -12 4 -9 6 -8 6 2 1 27 -16 45 -31
32 -17 -14 -81 -13 -90 2 -4 6 -16 -11 -29 -38z"/>
<path d="M3766 2601 c-20 -21 -24 -30 -14 -33 7 -3 -7 -6 -31 -6 -67 -1 -62
-12 6 -12 l61 0 7 36 c3 20 5 38 2 40 -2 2 -16 -9 -31 -25z"/>
<path d="M4343 2524 c-4 -12 -23 -34 -40 -49 -18 -15 -33 -31 -33 -35 0 -5 12
2 26 15 15 14 30 25 33 25 4 0 5 -71 3 -157 -2 -87 -1 -155 3 -151 4 4 9 60
10 125 6 176 12 212 40 219 13 3 33 0 45 -6 18 -10 21 -9 18 2 -3 8 -20 13
-44 13 -21 0 -42 4 -46 9 -4 6 -10 2 -15 -10z"/>
<path d="M4593 2529 c-17 -5 -41 -21 -52 -35 -31 -39 -26 -46 9 -14 31 29 101
47 135 34 13 -5 16 -3 13 7 -6 17 -61 21 -105 8z"/>
<path d="M4888 2505 c-3 -25 0 -34 8 -31 11 4 21 -50 30 -159 4 -56 22 -127
34 -138 10 -9 12 -8 6 7 -11 33 -49 315 -44 336 2 7 -4 15 -13 17 -13 3 -18
-5 -21 -32z"/>
<path d="M4180 2510 c0 -5 5 -10 10 -10 6 0 10 -60 10 -160 0 -157 0 -161 -22
-170 -21 -8 -21 -9 7 -9 17 0 39 4 49 8 19 7 18 8 -3 14 l-24 6 5 143 c6 153
10 174 36 181 10 3 -2 5 -25 6 -24 0 -43 -3 -43 -9z"/>
<path d="M3989 2483 c-6 -15 -16 -55 -23 -88 l-12 -60 -64 -11 c-92 -17 -140
-17 -140 -1 0 17 52 97 78 120 11 10 42 22 69 27 l48 8 -53 1 c-29 0 -62 -3
-72 -9 -10 -5 -39 -41 -65 -80 -47 -70 -65 -80 -65 -35 0 62 -55 135 -101 135
-19 0 -35 -10 -53 -32 -15 -18 -31 -39 -37 -46 -11 -13 -4 -55 29 -175 15 -55
42 -97 29 -46 -3 13 -14 64 -23 112 -17 85 -17 90 0 122 42 77 121 38 135 -67
9 -66 0 -95 -37 -125 -19 -16 -22 -23 -11 -23 8 0 26 11 39 25 32 34 40 32 40
-10 0 -24 6 -37 19 -45 25 -13 161 -13 195 0 16 6 27 6 31 0 14 -23 25 -6 25
40 0 28 4 50 9 50 5 0 33 -27 62 -60 29 -33 56 -60 60 -60 4 0 -1 20 -12 45
-28 64 -23 88 21 96 l35 6 -41 2 c-48 1 -54 9 -55 84 -1 58 -19 119 -37 125
-7 2 -17 -9 -23 -25z m35 -35 c3 -7 7 -43 10 -80 l7 -68 -30 0 c-16 0 -32 4
-35 9 -5 8 9 108 19 139 2 6 9 12 15 12 6 0 12 -6 14 -12z m-72 -174 c-6 -72
-4 -71 -99 -77 -102 -6 -125 3 -121 48 3 30 5 30 103 51 55 12 104 20 110 19
5 -1 8 -19 7 -41z m98 -20 c15 -38 13 -40 -15 -14 -13 12 -22 27 -19 31 10 16
24 9 34 -17z"/>
<path d="M3421 2423 c6 -16 13 -73 15 -128 1 -55 3 -106 3 -112 1 -7 8 -13 16
-13 12 0 15 7 10 33 -3 17 -7 70 -9 117 -3 82 -16 130 -36 130 -6 0 -5 -11 1
-27z"/>
<path d="M4468 2390 c-3 -36 -5 -67 -2 -69 11 -11 15 12 12 70 l-3 64 -7 -65z"/>
<path d="M4532 2398 c16 -25 16 -26 -8 -49 -13 -12 -24 -29 -24 -37 0 -9 8 -4
21 12 24 30 69 56 99 56 11 0 20 5 20 10 0 7 -16 9 -39 6 -26 -3 -46 1 -62 12
l-24 16 17 -26z"/>
<path d="M2875 2319 c-4 -6 -5 -13 -2 -16 7 -7 27 6 27 18 0 12 -17 12 -25 -2z"/>
<path d="M2963 2323 c-7 -2 -13 -9 -13 -13 0 -5 -14 -32 -30 -61 -17 -28 -28
-54 -25 -57 6 -6 5 -8 33 48 12 25 29 55 38 68 17 23 17 24 -3 15z"/>
<path d="M3029 2322 c8 -6 11 -18 6 -33 -6 -19 -5 -21 5 -13 15 15 9 46 -10
51 -12 4 -12 3 -1 -5z"/>
<path d="M3101 2295 c-11 -19 -16 -35 -11 -35 5 0 16 13 25 29 8 16 20 31 27
34 9 4 7 6 -4 6 -9 1 -25 -15 -37 -34z"/>
<path d="M3185 2320 c3 -5 8 -10 11 -10 2 0 4 5 4 10 0 6 -5 10 -11 10 -5 0
-7 -4 -4 -10z"/>
<path d="M3285 2320 c-3 -5 -3 -15 0 -20 4 -6 2 -17 -5 -25 -6 -8 -7 -16 -2
-19 13 -8 27 14 31 47 2 26 -12 37 -24 17z"/>
<path d="M4810 2293 c-19 -9 -20 -13 -7 -13 24 0 22 -11 -14 -60 -25 -34 -35
-41 -55 -37 -20 3 -22 2 -12 -10 23 -29 52 -10 83 54 29 60 31 62 69 62 22 1
37 4 34 7 -12 11 -74 10 -98 -3z"/>
<path d="M4435 2247 c-12 -30 -29 -56 -42 -63 -13 -6 -20 -14 -16 -17 16 -16
32 -4 53 41 13 26 27 55 31 64 5 9 5 19 1 22 -4 2 -16 -19 -27 -47z"/>
<path d="M2842 2251 c-25 -43 -26 -51 -12 -51 6 0 10 6 10 13 0 6 7 25 15 41
23 44 12 41 -13 -3z"/>
<path d="M3230 2260 c0 -5 4 -10 9 -10 6 0 13 5 16 10 3 6 -1 10 -9 10 -9 0
-16 -4 -16 -10z"/>
<path d="M3009 2243 c-13 -16 -12 -17 4 -4 16 13 21 21 13 21 -2 0 -10 -8 -17
-17z"/>
<path d="M3054 2219 c-10 -20 -11 -30 -4 -27 6 2 12 8 12 13 0 6 4 18 9 28 5
9 7 17 5 17 -3 0 -13 -14 -22 -31z"/>
<path d="M4500 2220 c0 -14 49 -48 80 -55 36 -8 130 30 130 53 0 13 -2 13 -17
0 -53 -43 -106 -48 -157 -13 -20 13 -36 20 -36 15z"/>
<path d="M3185 2210 c-3 -5 1 -10 9 -10 9 0 16 5 16 10 0 6 -4 10 -9 10 -6 0
-13 -4 -16 -10z"/>
<path d="M3288 2203 c7 -3 16 -2 19 1 4 3 -2 6 -13 5 -11 0 -14 -3 -6 -6z"/>
<path d="M2898 2088 c16 -16 16 -170 0 -186 -9 -9 -6 -12 17 -12 23 0 26 3 17
12 -16 16 -16 170 0 186 9 9 6 12 -17 12 -23 0 -26 -3 -17 -12z"/>
<path d="M2980 2073 c11 -32 9 -152 -3 -170 -6 -9 -2 -13 10 -13 16 0 18 10
16 102 -1 84 -4 104 -17 106 -13 3 -14 -2 -6 -25z"/>
<path d="M3140 2081 c14 -27 13 -164 -2 -179 -9 -9 -5 -12 17 -12 18 0 25 3
18 8 -9 5 -12 36 -10 97 2 78 4 90 20 93 10 2 27 -4 38 -14 10 -9 19 -13 19
-8 0 21 -26 34 -67 34 -40 0 -43 -2 -33 -19z"/>
<path d="M3309 2096 c-4 -23 0 -55 10 -79 14 -36 15 -35 -11 -40 -20 -4 -19
-4 4 -6 21 -1 29 -7 34 -26 3 -14 4 -32 0 -40 -3 -10 1 -15 13 -15 17 0 17 3
-2 73 -10 39 -21 84 -24 100 -5 24 -21 47 -24 33z"/>
<path d="M3060 2083 c0 -5 5 -14 12 -21 18 -18 13 -115 -7 -146 -14 -22 -15
-25 -3 -21 32 13 52 85 38 137 -10 33 -40 72 -40 51z"/>
<path d="M3420 2010 c0 -5 14 -10 31 -10 30 0 30 -1 27 -47 -3 -44 -5 -48 -33
-54 -18 -4 2 -7 50 -7 48 0 68 3 50 7 -28 6 -30 10 -33 54 -3 44 -2 47 22 47
14 0 28 5 31 10 4 6 -22 10 -69 10 -44 0 -76 -4 -76 -10z"/>
<path d="M3580 1955 l0 -65 62 0 c43 0 67 5 80 17 17 15 19 15 36 0 14 -13 35
-17 83 -15 60 1 61 2 14 5 -48 4 -75 16 -75 34 0 5 14 9 30 9 38 0 40 18 3 22
-17 2 -28 9 -28 18 0 11 14 16 58 18 31 2 57 7 57 12 0 16 -102 11 -133 -5
-26 -13 -31 -13 -50 0 -13 9 -44 15 -79 15 l-58 0 0 -65z m118 -4 c-3 -46 -3
-46 -40 -46 -21 0 -38 3 -38 8 0 4 0 25 0 46 0 36 3 40 28 43 47 6 53 -1 50
-51z"/>
<path d="M3937 2008 c-10 -8 -18 -33 -20 -65 -4 -47 -3 -53 14 -53 14 0 19 7
19 25 0 23 4 25 40 25 36 0 40 -2 40 -25 0 -16 6 -25 15 -25 12 0 15 13 15 55
0 43 -4 56 -19 65 -27 14 -84 13 -104 -2z m91 -30 c3 -15 -4 -18 -37 -18 -39
0 -53 14 -34 34 14 14 68 1 71 -16z"/>
<path d="M3195 2001 c-3 -5 -1 -12 5 -16 5 -3 10 1 10 9 0 18 -6 21 -15 7z"/>
<path d="M3218 1909 c-17 -18 -17 -19 2 -19 13 0 20 7 20 20 0 24 0 24 -22 -1z"/>
<path d="M3266 1905 c-3 -9 0 -15 9 -15 9 0 12 6 9 15 -4 8 -7 15 -9 15 -2 0
-5 -7 -9 -15z"/>
<path d="M3485 1730 c-643 -5 -634 -5 -699 -48 -119 -82 -72 -225 89 -267 88
-23 1881 -23 1969 0 203 53 208 251 7 305 -50 13 -518 17 -1366 10z"/>
<path d="M2835 1297 c-112 -53 -147 -144 -84 -220 17 -21 50 -48 72 -60 l42
-22 995 0 995 0 45 27 c76 44 95 71 95 133 0 61 -23 93 -98 136 l-42 24 -985
3 -985 2 -50 -23z"/>
<path d="M2889 900 c-93 -16 -169 -88 -169 -160 0 -94 102 -158 258 -164 107
-4 90 6 187 -111 22 -27 82 -97 133 -156 l93 -108 72 -3 71 -3 25 -50 c30 -58
84 -99 155 -116 66 -16 171 -7 222 19 47 24 111 94 116 126 2 17 11 22 42 24
33 3 73 29 260 175 122 94 232 179 245 189 19 14 41 17 127 16 98 -1 107 1
166 30 73 37 99 68 105 126 7 73 -60 143 -159 166 -52 11 -1880 12 -1949 0z"/>
</g>
</svg>
