<?xml version="1.0" standalone="no"?>
<!DOCTYPE svg PUBLIC "-//W3C//DTD SVG 20010904//EN"
 "http://www.w3.org/TR/2001/REC-SVG-20010904/DTD/svg10.dtd">
<svg version="1.0" xmlns="http://www.w3.org/2000/svg"
 width="768.000000pt" height="768.000000pt" viewBox="0 0 768.000000 768.000000"
 preserveAspectRatio="xMidYMid meet">
<metadata>
Created by potrace 1.16, written by Peter Selinger 2001-2019
</metadata>
<g transform="translate(0.000000,768.000000) scale(0.100000,-0.100000)"
fill="#000000" stroke="none">
<path d="M3750 7666 c-80 -17 -142 -56 -255 -157 -157 -142 -224 -176 -385
-200 -105 -15 -203 -1 -369 54 -115 38 -135 42 -226 42 -92 0 -105 -3 -167
-33 -97 -47 -153 -114 -233 -275 -36 -73 -81 -153 -100 -179 -66 -91 -206
-180 -333 -213 -31 -9 -115 -20 -187 -26 -147 -12 -234 -31 -285 -62 -93 -57
-160 -145 -184 -242 -8 -33 -20 -127 -25 -210 -15 -217 -48 -306 -157 -424
-70 -76 -151 -130 -307 -207 -114 -56 -179 -113 -225 -198 -66 -123 -64 -205
15 -438 46 -140 47 -146 47 -263 0 -184 -29 -247 -208 -455 -54 -63 -110 -138
-123 -167 -55 -119 -51 -263 12 -368 19 -30 73 -102 122 -160 118 -140 130
-156 155 -212 34 -76 48 -142 48 -223 -1 -91 -8 -126 -66 -305 -37 -112 -46
-155 -47 -215 -2 -94 27 -175 87 -249 51 -62 84 -85 208 -147 142 -72 210
-118 280 -192 112 -120 147 -222 166 -492 12 -160 33 -223 98 -298 84 -96 175
-133 354 -147 199 -14 298 -42 414 -115 102 -64 154 -131 240 -305 66 -132 84
-160 133 -206 81 -73 147 -101 253 -106 80 -5 94 -2 229 41 181 59 278 73 383
57 158 -24 233 -63 375 -193 49 -44 112 -96 141 -115 110 -71 276 -77 400 -14
31 17 101 70 154 119 119 109 171 143 268 176 157 52 268 45 503 -30 133 -43
148 -46 227 -42 71 4 96 10 153 38 101 50 151 110 238 287 64 130 81 156 143
218 78 77 176 133 281 160 33 8 128 21 210 29 89 9 174 23 210 36 111 38 211
149 240 268 7 32 18 125 24 207 15 221 49 311 160 429 71 74 135 118 286 194
147 74 203 125 253 229 31 67 35 83 34 156 0 71 -7 104 -52 242 -111 339 -81
471 171 758 116 131 158 235 143 357 -13 110 -50 177 -171 312 -145 161 -203
286 -203 436 0 90 14 151 71 322 53 160 57 253 15 346 -56 123 -109 173 -268
251 -188 92 -287 172 -354 286 -57 97 -74 164 -85 331 -16 237 -44 316 -148
407 -81 73 -144 92 -356 109 -167 13 -265 43 -367 110 -105 69 -161 140 -246
312 -82 166 -127 218 -230 269 -56 28 -81 34 -152 37 -79 4 -95 1 -229 -42
-178 -58 -275 -72 -377 -57 -163 24 -240 64 -392 202 -110 101 -181 143 -266
158 -72 13 -95 13 -166 -3z m545 -626 c757 -115 1380 -442 1910 -1000 126
-133 196 -221 316 -398 281 -412 455 -872 524 -1387 23 -167 31 -501 16 -677
-55 -644 -291 -1244 -689 -1748 -149 -189 -478 -499 -674 -635 -704 -491
-1550 -681 -2398 -540 -559 93 -1084 333 -1520 695 -95 79 -332 312 -410 404
-252 297 -465 674 -589 1045 -279 831 -214 1744 178 2507 160 312 327 541 580
797 352 358 683 574 1171 767 49 19 202 67 320 99 116 32 314 68 435 80 61 6
124 13 140 15 17 2 147 3 290 1 202 -3 291 -8 400 -25z"/>
<path d="M3610 6643 c-582 -62 -1032 -234 -1465 -562 -326 -246 -620 -594
-799 -944 -206 -402 -302 -778 -313 -1228 -9 -317 27 -585 117 -888 227 -760
811 -1423 1540 -1747 718 -318 1517 -326 2250 -22 538 223 1044 674 1348 1203
216 377 344 835 359 1291 23 716 -214 1389 -682 1933 -85 98 -234 246 -317
313 -48 39 -85 75 -81 81 3 6 1 7 -5 3 -6 -4 -44 17 -84 47 -390 285 -847 459
-1346 512 -122 13 -430 18 -522 8z m-115 -744 c97 -27 104 -49 106 -360 2
-298 -2 -313 -78 -353 -23 -11 -58 -16 -120 -16 -104 0 -147 17 -178 70 -18
32 -20 55 -23 279 -4 261 3 305 48 346 45 41 161 57 245 34z m594 -17 c14 -10
35 -34 46 -53 19 -32 20 -52 20 -294 0 -230 -2 -264 -18 -292 -31 -58 -58 -68
-182 -68 -98 0 -113 2 -141 22 -58 41 -64 76 -64 341 0 208 3 242 19 277 35
76 81 96 210 91 63 -3 90 -9 110 -24z m406 13 c21 -8 39 -25 45 -40 14 -36 13
-258 -1 -288 -15 -34 -49 -47 -118 -47 -99 0 -126 47 -119 214 5 140 28 174
121 175 21 1 53 -6 72 -14z m290 -5 c-20 -64 -306 -715 -317 -721 -18 -12 -48
-11 -48 1 0 5 7 24 15 42 8 18 49 114 90 213 42 99 80 189 85 200 13 28 100
235 111 263 6 16 17 22 39 22 27 0 30 -3 25 -20z m-1745 -355 l0 -355 -85 0
-85 0 0 275 0 275 -50 0 -50 0 0 39 c0 36 3 40 33 46 48 11 85 32 92 55 6 17
15 20 76 20 l69 0 0 -355z m1827 3 c31 -25 43 -75 43 -178 0 -159 -24 -193
-133 -192 -105 2 -127 37 -126 197 0 115 13 155 59 178 40 21 130 18 157 -5z
m-266 -918 c172 -57 263 -191 276 -407 l6 -93 -140 0 -140 0 -6 71 c-11 133
-62 189 -171 189 -87 -1 -141 -27 -166 -82 -38 -84 -19 -197 39 -227 11 -6 89
-37 173 -70 197 -75 269 -112 330 -169 59 -55 92 -116 107 -197 53 -285 -85
-524 -339 -586 -71 -18 -251 -17 -315 0 -142 40 -247 137 -295 275 -13 35 -21
97 -26 184 l-7 132 140 0 140 0 10 -112 c16 -191 46 -223 203 -223 105 0 144
14 184 68 28 37 35 166 13 219 -21 49 -43 62 -228 129 -198 72 -259 102 -320
159 -155 146 -156 456 -1 631 49 55 140 105 225 125 83 18 225 11 308 -16z
m-2542 -10 c124 -16 204 -52 277 -124 76 -76 104 -143 112 -269 6 -113 -14
-193 -69 -265 -21 -29 -39 -55 -39 -58 0 -3 14 -17 30 -31 42 -35 80 -104 96
-172 16 -67 18 -207 4 -281 -23 -119 -100 -230 -198 -283 -94 -51 -141 -57
-449 -57 l-283 0 0 775 0 775 218 0 c120 0 255 -5 301 -10z m1601 -130 l0
-140 -284 0 c-178 0 -286 -4 -288 -10 -1 -5 -2 -77 0 -160 l3 -150 260 0 259
0 0 -140 0 -140 -260 -2 -261 -3 0 -195 0 -195 276 -3 275 -2 0 -135 0 -135
-420 0 -420 0 0 775 0 775 430 0 430 0 0 -140z m2480 -5 l0 -145 -177 -2 -178
-3 -2 -625 -3 -625 -140 -3 -140 -3 -2 628 -3 628 -187 3 -188 2 0 145 0 145
510 0 510 0 0 -145z m-3626 -1874 c16 -9 38 -29 50 -44 20 -27 21 -42 24 -289
3 -248 2 -262 -18 -304 -12 -24 -27 -44 -33 -44 -7 0 -21 -7 -32 -16 -17 -13
-18 -16 -5 -24 8 -5 32 -10 53 -10 l37 0 0 -50 0 -50 -49 0 c-63 0 -114 18
-107 37 3 8 1 11 -4 8 -6 -4 -10 9 -10 29 0 33 -2 36 -30 36 -49 0 -124 20
-148 40 -47 39 -52 72 -52 335 0 264 4 288 53 333 45 42 206 50 271 13z m386
-287 c0 -295 4 -334 35 -334 31 0 35 39 35 334 l0 296 86 0 86 0 -4 -307 c-3
-288 -4 -310 -23 -343 -34 -58 -76 -75 -180 -75 -105 1 -146 18 -180 75 -19
33 -20 54 -23 343 l-3 307 85 0 86 0 0 -296z m724 -41 c26 -186 50 -346 52
-355 5 -16 -4 -18 -84 -18 l-89 0 -9 93 -9 92 -46 3 -46 3 -7 -73 c-12 -125
-7 -118 -92 -118 -41 0 -74 2 -74 4 0 2 9 48 20 102 10 54 40 207 65 339 25
132 48 246 50 253 3 8 35 12 113 12 l108 0 48 -337z m346 32 l0 -305 75 0 75
0 0 -50 0 -50 -160 0 -160 0 0 355 0 355 85 0 85 0 0 -305z m440 -50 l0 -355
-85 0 -85 0 0 355 0 355 85 0 85 0 0 -355z m540 304 l0 -51 -55 4 -55 3 0
-307 0 -308 -85 0 -85 0 0 305 0 305 -55 0 -55 0 0 50 0 50 195 0 195 0 0 -51z
m280 44 c0 -5 9 -50 20 -102 11 -52 20 -111 20 -133 0 -61 15 -44 28 34 7 39
19 102 28 140 l16 68 75 0 c56 0 74 -3 70 -12 -2 -7 -32 -104 -66 -215 -61
-201 -61 -202 -61 -326 0 -69 -3 -132 -6 -141 -5 -13 -22 -16 -85 -16 l-79 0
0 133 c0 90 -5 148 -16 182 -31 102 -114 385 -114 390 0 8 170 6 170 -2z"/>
<path d="M3375 5798 c-3 -7 -4 -128 -3 -268 l3 -255 25 0 25 0 0 265 0 265
-23 3 c-12 2 -24 -3 -27 -10z"/>
<path d="M3930 5791 c-6 -12 -10 -111 -10 -253 0 -188 3 -238 14 -254 12 -15
18 -17 33 -8 16 10 18 32 21 259 2 250 -1 275 -34 275 -7 0 -18 -9 -24 -19z"/>
<path d="M1828 4354 c-5 -4 -8 -86 -8 -182 l0 -174 114 3 c97 4 119 7 142 25
57 42 69 69 69 152 0 141 -39 175 -205 180 -58 2 -108 0 -112 -4z"/>
<path d="M1820 3530 l0 -190 128 0 c141 0 178 11 216 63 30 40 35 196 9 247
-30 58 -68 70 -220 70 l-133 0 0 -190z"/>
<path d="M2373 2523 c-10 -3 -13 -67 -13 -269 0 -227 2 -265 15 -270 8 -4 22
-1 30 6 13 11 15 51 13 274 -3 273 -4 277 -45 259z"/>
</g>
</svg>
