<?xml version="1.0" standalone="no"?>
<!DOCTYPE svg PUBLIC "-//W3C//DTD SVG 20010904//EN"
 "http://www.w3.org/TR/2001/REC-SVG-20010904/DTD/svg10.dtd">
<svg version="1.0" xmlns="http://www.w3.org/2000/svg"
 width="200.000000pt" height="200.000000pt" viewBox="0 0 200.000000 200.000000"
 preserveAspectRatio="xMidYMid meet">

<g transform="translate(0.000000,200.000000) scale(0.100000,-0.100000)"
fill="#000000" stroke="none">
<path d="M364 1932 c-53 -34 -74 -69 -74 -126 0 -63 22 -101 75 -130 l40 -23
5 -89 5 -89 178 -3 177 -2 0 -65 0 -65 -219 0 c-219 0 -220 0 -226 23 -25 81
-138 122 -213 77 -126 -77 -72 -270 76 -270 56 0 121 46 137 98 6 22 7 22 226
22 l219 0 0 -65 0 -65 -177 -2 -178 -3 -3 -87 -3 -88 -40 -20 c-53 -28 -79
-72 -79 -137 0 -41 5 -58 26 -83 68 -80 160 -80 227 0 60 70 36 171 -51 218
l-43 24 3 61 3 62 155 0 154 0 6 -25 c4 -18 14 -26 33 -28 l27 -3 0 -130 c0
-79 -4 -129 -10 -129 -5 0 -10 4 -10 9 0 13 -100 61 -126 61 -55 0 -94 -40
-94 -95 0 -24 15 -38 97 -95 58 -41 76 -72 84 -150 8 -74 40 -146 95 -219 33
-43 34 -47 34 -138 l0 -93 173 2 172 3 3 90 3 90 32 16 c20 10 41 34 57 65 25
48 25 51 25 292 l0 244 -24 19 c-13 10 -37 19 -53 19 -20 0 -39 10 -58 30 -22
24 -36 30 -69 30 -23 0 -41 5 -41 10 0 25 -41 50 -82 50 -78 0 -25 19 62 22
81 3 84 4 90 28 l6 25 154 0 155 0 3 -62 3 -61 -43 -24 c-55 -30 -94 -100 -84
-153 18 -93 126 -151 205 -110 53 27 81 71 81 126 0 66 -20 103 -75 134 l-44
26 -3 87 -3 87 -177 3 -178 2 0 65 0 65 219 0 c219 0 220 0 226 -22 16 -51 80
-98 135 -98 113 0 187 124 130 218 -53 86 -167 96 -236 20 -12 -12 -25 -33
-29 -45 -6 -23 -7 -23 -226 -23 l-219 0 0 65 0 65 178 2 177 3 5 89 5 89 40
23 c53 29 75 67 75 131 0 150 -197 197 -267 63 -13 -24 -23 -55 -23 -69 0 -43
42 -104 85 -127 39 -20 40 -21 43 -82 4 -76 8 -74 -178 -70 -134 3 -134 3
-140 28 l-6 25 -204 0 -204 0 -6 -25 c-6 -25 -6 -25 -140 -28 -186 -4 -182 -6
-178 70 3 61 4 62 43 82 27 14 48 36 64 66 32 60 24 107 -28 162 -32 35 -45
41 -87 45 -37 3 -57 -1 -80 -15z m771 -617 l0 -220 -65 0 -65 0 -5 103 c-5 94
-7 106 -29 123 -30 25 -72 24 -105 -2 -25 -19 -26 -25 -26 -114 0 -52 -4 -97
-10 -100 -11 -7 -14 417 -3 429 4 3 75 5 157 4 l151 -3 0 -220z"/>
</g>
</svg>
