<?xml version="1.0" standalone="no"?>
<!DOCTYPE svg PUBLIC "-//W3C//DTD SVG 20010904//EN"
 "http://www.w3.org/TR/2001/REC-SVG-20010904/DTD/svg10.dtd">
<svg version="1.0" xmlns="http://www.w3.org/2000/svg"
 width="200.000000pt" height="200.000000pt" viewBox="0 0 200.000000 200.000000"
 preserveAspectRatio="xMidYMid meet">

<g transform="translate(0.000000,200.000000) scale(0.100000,-0.100000)"
fill="#000000" stroke="none">
<path d="M209 1921 c-16 -16 -29 -34 -29 -40 0 -17 20 -23 35 -11 13 11 15 5
15 -42 0 -30 3 -58 7 -61 15 -15 32 32 33 90 0 100 -12 113 -61 64z"/>
<path d="M336 1929 c-22 -17 -26 -28 -26 -70 0 -42 3 -49 20 -49 17 0 20 7 20
45 0 55 23 71 51 37 23 -29 39 -28 39 2 0 26 -33 56 -61 56 -9 0 -28 -9 -43
-21z"/>
<path d="M510 1930 c-30 -30 -25 -40 12 -29 19 5 45 5 65 0 20 -6 33 -6 33 0
0 18 -41 49 -65 49 -14 0 -34 -9 -45 -20z"/>
<path d="M829 1921 c-16 -16 -29 -34 -29 -40 0 -17 20 -23 35 -11 13 11 15 7
15 -25 0 -29 3 -36 18 -33 28 5 30 138 1 138 -6 0 -24 -13 -40 -29z"/>
<path d="M956 1929 c-22 -17 -26 -28 -26 -70 0 -42 3 -49 20 -49 17 0 20 7 20
45 0 55 23 71 51 37 23 -29 39 -28 39 2 0 26 -33 56 -61 56 -9 0 -28 -9 -43
-21z"/>
<path d="M1130 1930 c-14 -14 -20 -33 -20 -65 0 -38 5 -50 28 -70 33 -30 36
-30 72 -3 26 19 30 28 30 70 0 55 -24 88 -65 88 -14 0 -34 -9 -45 -20z m65
-75 c0 -43 -3 -50 -20 -50 -16 0 -21 8 -23 39 -4 49 3 68 25 64 14 -3 18 -14
18 -53z"/>
<path d="M1439 1921 c-16 -16 -29 -34 -29 -40 0 -17 20 -23 35 -11 13 11 15 6
15 -28 0 -35 2 -39 20 -35 17 5 20 14 20 58 0 92 -13 104 -61 56z"/>
<path d="M1566 1929 c-22 -17 -26 -28 -26 -70 0 -27 5 -49 10 -49 6 0 10 15
10 33 0 47 26 68 73 60 42 -7 49 7 15 31 -30 21 -50 20 -82 -5z"/>
<path d="M1740 1930 c-15 -15 -20 -33 -20 -74 0 -47 4 -57 26 -75 15 -12 32
-21 39 -21 7 0 24 9 39 21 22 18 26 28 26 75 0 61 -22 94 -65 94 -14 0 -34 -9
-45 -20z m65 -75 c0 -43 -3 -50 -20 -50 -16 0 -21 8 -23 39 -4 49 3 68 25 64
14 -3 18 -14 18 -53z"/>
<path d="M532 1703 c3 -145 3 -148 26 -151 21 -3 22 0 22 72 0 66 3 77 22 90
12 9 29 16 38 16 36 -1 45 -19 50 -97 4 -70 7 -78 25 -78 18 0 20 7 20 83 0
76 -2 86 -24 103 -28 23 -78 25 -109 3 l-22 -15 0 60 c0 59 -1 61 -25 61 l-26
0 3 -147z"/>
<path d="M1610 1795 c0 -52 -1 -55 -19 -45 -37 19 -89 12 -122 -18 -27 -24
-32 -36 -33 -74 -1 -36 4 -52 23 -72 30 -32 83 -43 119 -25 15 7 30 15 35 17
4 2 7 -4 7 -13 0 -10 7 -15 18 -13 15 3 17 20 20 151 l3 147 -26 0 c-24 0 -25
-3 -25 -55z m-18 -82 c21 -19 24 -81 6 -106 -7 -9 -25 -19 -40 -22 -35 -9 -78
31 -78 73 0 59 70 93 112 55z"/>
<path d="M317 1753 c-35 -9 -11 -28 32 -25 69 6 98 -32 34 -44 -82 -15 -119
-55 -94 -103 16 -29 77 -39 113 -18 24 14 28 14 28 2 0 -8 9 -15 20 -15 18 0
20 7 20 80 0 73 -3 83 -25 105 -19 19 -34 25 -67 24 -24 -1 -51 -3 -61 -6z
m103 -123 c0 -34 -29 -55 -66 -46 -42 11 -28 57 21 69 40 10 45 7 45 -23z"/>
<path d="M802 1658 c3 -95 4 -103 23 -103 18 0 20 8 23 70 3 73 19 105 53 105
36 0 49 -28 49 -106 0 -72 1 -75 23 -72 20 3 22 9 27 83 5 77 6 80 34 90 45
15 66 -19 66 -106 0 -62 2 -69 20 -69 18 0 20 7 20 79 0 98 -20 131 -78 131
-20 0 -45 -7 -56 -15 -16 -12 -21 -12 -40 0 -27 19 -76 19 -104 -1 -20 -14
-22 -14 -22 0 0 9 -9 16 -20 16 -20 0 -21 -5 -18 -102z"/>
<path d="M1224 1726 c-85 -85 -1 -196 130 -172 26 5 34 11 29 22 -4 11 -15 13
-47 9 -50 -7 -90 11 -94 43 -3 21 0 22 77 22 74 0 81 2 81 20 0 55 -41 90
-106 90 -28 0 -44 -8 -70 -34z m124 -23 l14 -23 -61 0 c-63 0 -72 7 -45 35 23
22 73 16 92 -12z"/>
<path d="M80 1675 c-26 -26 -31 -38 -22 -47 8 -8 15 -8 26 1 13 11 15 5 18
-46 2 -44 7 -58 18 -58 12 0 15 17 15 89 0 53 -4 91 -10 93 -6 2 -26 -13 -45
-32z"/>
<path d="M205 1685 c-35 -34 -35 -106 0 -140 13 -14 31 -25 40 -25 14 0 13 4
-4 29 -28 38 -28 102 -1 126 19 17 19 35 -1 35 -5 0 -21 -11 -34 -25z"/>
<path d="M1742 1690 c-17 -16 -22 -32 -22 -73 0 -29 6 -60 13 -69 22 -28 60
-32 90 -8 23 18 27 29 27 74 0 42 -5 57 -23 74 -29 27 -57 28 -85 2z m63 -75
c0 -43 -3 -50 -20 -50 -16 0 -21 8 -23 39 -4 49 3 68 25 64 14 -3 18 -14 18
-53z"/>
<path d="M133 1469 c-69 -25 -50 -179 22 -179 55 0 91 77 65 139 -14 34 -54
52 -87 40z m46 -43 c7 -8 11 -32 9 -53 -3 -33 -6 -38 -28 -38 -22 0 -25 5 -28
38 -3 36 10 67 28 67 4 0 13 -6 19 -14z"/>
<path d="M753 1469 c-69 -25 -50 -179 22 -179 55 0 91 77 65 139 -14 34 -54
52 -87 40z m46 -43 c7 -8 11 -32 9 -53 -3 -33 -6 -38 -28 -38 -22 0 -25 5 -28
38 -3 36 10 67 28 67 4 0 13 -6 19 -14z"/>
<path d="M1363 1469 c-69 -25 -50 -179 22 -179 55 0 91 77 65 139 -14 34 -54
52 -87 40z m46 -43 c7 -8 11 -32 9 -53 -3 -33 -6 -38 -28 -38 -22 0 -25 5 -28
38 -3 36 10 67 28 67 4 0 13 -6 19 -14z"/>
<path d="M296 1441 c-30 -31 -27 -56 5 -46 16 5 19 1 19 -24 0 -24 4 -31 20
-31 18 0 20 7 20 65 0 56 -2 65 -18 65 -10 0 -31 -13 -46 -29z"/>
<path d="M916 1441 c-30 -31 -27 -56 5 -46 16 5 19 1 19 -24 0 -24 4 -31 20
-31 18 0 20 7 20 65 0 56 -2 65 -18 65 -10 0 -31 -13 -46 -29z"/>
<path d="M1526 1441 c-30 -31 -27 -56 5 -46 16 5 19 1 19 -24 0 -24 4 -31 20
-31 18 0 20 7 20 65 0 56 -2 65 -18 65 -10 0 -31 -13 -46 -29z"/>
<path d="M578 1254 c-34 -18 -48 -43 -48 -86 0 -40 23 -76 56 -88 20 -8 23
-17 26 -72 l3 -63 123 -3 122 -3 0 -44 0 -45 -149 0 c-140 0 -150 1 -156 20
-10 32 -54 60 -96 60 -52 0 -89 -33 -96 -86 -5 -36 -1 -46 25 -75 25 -28 37
-34 70 -34 43 0 86 30 98 67 5 16 18 18 155 18 l149 0 0 -45 0 -44 -122 -3
-123 -3 -3 -62 c-3 -58 -5 -64 -32 -78 -36 -19 -50 -43 -50 -88 0 -97 133
-132 183 -48 9 16 17 40 17 54 0 29 -41 83 -70 92 -16 5 -20 15 -20 51 l0 44
110 0 c94 0 110 -2 110 -16 0 -9 9 -18 20 -21 18 -5 20 -14 20 -94 l0 -88 -36
24 c-63 43 -124 26 -124 -34 0 -23 9 -34 50 -59 51 -32 70 -62 70 -110 0 -32
50 -141 73 -161 12 -10 17 -30 17 -72 l0 -59 120 0 120 0 0 53 c0 47 3 55 23
64 47 22 57 66 57 245 0 147 -2 167 -18 181 -10 10 -28 17 -40 17 -12 0 -31 9
-42 20 -11 11 -30 20 -41 20 -12 0 -27 7 -33 16 -7 9 -28 19 -46 24 -31 7 -27
8 28 9 55 1 65 4 69 21 5 18 14 20 114 20 l109 0 0 -44 c0 -36 -4 -46 -20 -51
-29 -9 -70 -63 -70 -92 0 -14 8 -38 17 -54 50 -84 183 -49 183 48 0 45 -14 69
-50 88 -27 14 -29 20 -32 78 l-3 62 -122 3 -123 3 0 44 0 45 149 0 c137 0 150
-2 155 -18 12 -37 55 -67 98 -67 33 0 45 6 70 34 26 29 30 39 25 75 -7 53 -44
86 -96 86 -42 0 -86 -28 -96 -60 -6 -19 -16 -20 -156 -20 l-149 0 0 45 0 44
123 3 122 3 3 63 c3 55 6 64 26 72 33 12 56 48 56 88 0 44 -14 68 -50 87 -46
24 -78 19 -116 -19 -50 -50 -47 -87 11 -142 37 -34 45 -48 45 -78 l0 -36 -109
0 c-100 0 -109 2 -114 20 -5 19 -14 20 -142 20 -128 0 -137 -1 -142 -20 -5
-18 -14 -20 -114 -20 l-109 0 0 36 c0 30 8 44 45 78 58 55 61 92 11 142 -38
38 -73 43 -118 18z m532 -419 l0 -155 -45 0 -45 0 0 67 c0 73 -16 103 -55 103
-42 0 -54 -21 -58 -95 -2 -38 -4 -1 -5 83 l-2 152 105 0 105 0 0 -155z"/>
</g>
</svg>
